<svg width="38" height="38" viewBox="0 0 38 38" fill="none" xmlns="http://www.w3.org/2000/svg">
<path fill-rule="evenodd" clip-rule="evenodd" d="M17.8587 3.01263C15.657 3.21366 13.8417 3.71262 11.909 4.64797C9.068 6.02295 6.62513 8.35904 5.02669 11.2295C3.7736 13.4796 3.08165 15.9926 3.00664 18.5655C2.90959 21.8952 3.87815 25.2025 5.77175 28.0073C6.68592 29.3614 8.20406 30.9438 9.53292 31.9278C11.4723 33.3638 13.8254 34.3691 16.1878 34.7708C17.2441 34.9505 17.8081 34.9967 18.9802 34.9998C20.3981 35.0034 20.8765 34.9671 22.0026 34.77C23.0487 34.587 24.0387 34.3047 24.9679 33.9246C27.9791 32.6928 30.6222 30.4601 32.5158 27.5486C33.6558 25.7957 34.4355 23.765 34.7979 21.6045C34.974 20.5549 35.0459 19.0203 34.9699 17.9348C34.9249 17.292 34.7787 16.2062 34.6766 15.7567C34.3634 14.3772 34.0288 13.3738 33.4973 12.22C32.691 10.4697 31.529 8.82945 30.1528 7.49915C29.5433 6.90998 29.1497 6.57975 29.2485 6.74056C29.2654 6.76812 29.2589 6.77428 29.2311 6.757C29.2066 6.74179 29.1958 6.71438 29.207 6.69607C29.2328 6.65417 28.8466 6.34279 28.2564 5.92968C26.0664 4.39667 23.4409 3.4205 20.5959 3.08151C20.107 3.02326 18.2533 2.97662 17.8587 3.01263ZM18.4979 3.05284C18.5253 3.06389 18.5581 3.06251 18.5707 3.04982C18.5833 3.03713 18.5609 3.02811 18.5208 3.02975C18.4766 3.03159 18.4675 3.04065 18.4979 3.05284ZM18.7616 3.05204C18.7878 3.06267 18.8305 3.06267 18.8567 3.05204C18.8828 3.04145 18.8614 3.03277 18.8091 3.03277C18.7569 3.03277 18.7355 3.04145 18.7616 3.05204ZM18.9541 3.05284C18.9815 3.06389 19.0143 3.06251 19.0269 3.04982C19.0396 3.03713 19.0171 3.02811 18.9771 3.02975C18.9328 3.03159 18.9238 3.04065 18.9541 3.05284ZM17.9448 3.09241C18.0026 3.10116 18.0881 3.10093 18.1349 3.09187C18.1816 3.08281 18.1343 3.07563 18.0298 3.07589C17.9252 3.0762 17.887 3.08361 17.9448 3.09241ZM17.4334 3.12929C17.4608 3.14034 17.4936 3.13897 17.5062 3.12627C17.5189 3.11358 17.4964 3.10456 17.4564 3.10621C17.4121 3.10804 17.4031 3.1171 17.4334 3.12929ZM17.0706 3.1679C17.1076 3.17761 17.1589 3.17696 17.1846 3.16649C17.2104 3.15601 17.1801 3.1481 17.1174 3.14887C17.0546 3.14963 17.0336 3.15819 17.0706 3.1679ZM16.1408 3.32042C16.1682 3.33147 16.201 3.33009 16.2137 3.3174C16.2263 3.30471 16.2038 3.29569 16.1638 3.29734C16.1195 3.29917 16.1105 3.30823 16.1408 3.32042ZM21.6533 3.32042C21.6807 3.33147 21.7135 3.33009 21.7262 3.3174C21.7388 3.30471 21.7163 3.29569 21.6763 3.29734C21.632 3.29917 21.623 3.30823 21.6533 3.32042ZM15.7868 3.37077C15.685 3.3968 15.683 3.39993 15.7677 3.39993C15.82 3.39993 15.9141 3.38682 15.9768 3.37077C16.0786 3.34474 16.0806 3.3416 15.9959 3.3416C15.9436 3.3416 15.8495 3.35471 15.7868 3.37077ZM21.803 3.35785C21.8291 3.36847 21.8719 3.36847 21.898 3.35785C21.9242 3.34726 21.9028 3.33858 21.8505 3.33858C21.7982 3.33858 21.7769 3.34726 21.803 3.35785ZM22.0121 3.3971C22.0487 3.40674 22.1086 3.40674 22.1451 3.3971C22.1817 3.38751 22.1518 3.37964 22.0786 3.37964C22.0054 3.37964 21.9755 3.38751 22.0121 3.3971ZM22.5657 3.51155C22.5931 3.5226 22.6259 3.52122 22.6386 3.50853C22.6512 3.49584 22.6288 3.48682 22.5887 3.48846C22.5444 3.4903 22.5354 3.49936 22.5657 3.51155ZM23.0219 3.62623C23.0493 3.63728 23.0822 3.6359 23.0948 3.62321C23.1074 3.61052 23.085 3.6015 23.0449 3.60314C23.0006 3.60498 22.9916 3.61404 23.0219 3.62623ZM14.5702 3.67657C14.5223 3.69729 14.5153 3.70941 14.5512 3.70941C14.5826 3.70941 14.6424 3.69465 14.6843 3.67657C14.7322 3.65586 14.7392 3.64374 14.7033 3.64374C14.6719 3.64374 14.612 3.65849 14.5702 3.67657ZM24.2765 4.00849C24.3039 4.01954 24.3367 4.01816 24.3493 4.00547C24.362 3.99278 24.3395 3.98376 24.2995 3.9854C24.2552 3.98723 24.2462 3.99629 24.2765 4.00849ZM12.2321 4.55577C12.2008 4.57614 12.1922 4.59281 12.2131 4.59281C12.234 4.59281 12.2768 4.57614 12.3082 4.55577C12.3395 4.53539 12.3481 4.51873 12.3272 4.51873C12.3063 4.51873 12.2635 4.53539 12.2321 4.55577ZM25.7575 4.60041C25.7796 4.62266 25.8201 4.63329 25.8475 4.62411C25.876 4.61456 25.8587 4.59724 25.8074 4.58371C25.7441 4.56708 25.7293 4.57205 25.7575 4.60041ZM26.3365 4.8766C26.3365 4.88485 26.3631 4.90186 26.3956 4.9144C26.4294 4.92744 26.4446 4.92101 26.4313 4.89938C26.409 4.86303 26.3365 4.84563 26.3365 4.8766ZM26.9727 5.21035C26.9985 5.23649 27.0292 5.24823 27.0409 5.23645C27.0526 5.22468 27.0315 5.20331 26.994 5.18894C26.9398 5.16822 26.9354 5.17258 26.9727 5.21035ZM9.6421 6.07524C9.59485 6.13587 9.59618 6.13721 9.65647 6.08969C9.69304 6.06083 9.723 6.03071 9.723 6.0228C9.723 5.99134 9.69179 6.01156 9.6421 6.07524ZM8.95779 6.6104C8.91053 6.67103 8.91187 6.67237 8.97216 6.62485C9.0355 6.57489 9.05561 6.54351 9.02432 6.54351C9.01645 6.54351 8.98649 6.57359 8.95779 6.6104ZM18.4099 6.58174C18.5145 6.62688 18.5745 6.62688 18.505 6.58174C18.4736 6.56136 18.4223 6.54561 18.3909 6.5468C18.3533 6.54817 18.3598 6.56006 18.4099 6.58174ZM18.1066 6.69557C17.9964 6.81797 18.0513 7.03376 18.2964 7.44109C18.5531 7.86769 18.6709 8.17583 18.7319 8.58087C18.8223 9.1804 18.6963 9.68949 18.2378 10.5763C17.8952 11.2389 17.7605 11.6371 17.701 12.1632C17.6095 12.9731 17.8864 13.814 18.4021 14.292C18.7328 14.5985 19.0537 14.5985 19.1296 14.2921C19.1613 14.1642 19.1485 14.1173 19.0053 13.8347C18.8151 13.4593 18.754 13.1626 18.7881 12.7796C18.8248 12.3661 18.9567 11.9942 19.3322 11.2453C19.8257 10.2612 19.9382 9.83387 19.8999 9.08862C19.8729 8.56405 19.8078 8.31547 19.5648 7.81073C19.4073 7.48352 19.3235 7.36318 19.08 7.11472C18.6574 6.68349 18.2683 6.51591 18.1066 6.69557ZM18.8852 6.82554C18.8852 6.83345 18.9151 6.86357 18.9517 6.89243C19.012 6.93995 19.0133 6.93861 18.9661 6.87799C18.9164 6.8143 18.8852 6.79408 18.8852 6.82554ZM8.52185 6.97355L8.44942 7.05956L8.53496 6.98674C8.58203 6.94668 8.6205 6.90799 8.6205 6.90073C8.6205 6.87015 8.5899 6.89274 8.52185 6.97355ZM19.0372 6.97596C19.0372 6.98253 19.0928 7.03846 19.1608 7.10019L19.2843 7.21246L19.1727 7.08823C19.0686 6.97244 19.0372 6.94641 19.0372 6.97596ZM29.492 6.97596C29.492 6.98253 29.5476 7.03846 29.6155 7.10019L29.7391 7.21246L29.6274 7.08823C29.5233 6.97244 29.492 6.94641 29.492 6.97596ZM18.0488 7.19109C18.0488 7.21089 18.0657 7.23758 18.0864 7.25042C18.1079 7.2638 18.1143 7.24847 18.1013 7.21445C18.076 7.14824 18.0488 7.13612 18.0488 7.19109ZM8.06746 7.39403L7.91718 7.55649L8.07876 7.40539C8.16764 7.32228 8.24033 7.24916 8.24033 7.24293C8.24033 7.21399 8.20722 7.24297 8.06746 7.39403ZM18.1248 7.3352C18.1248 7.35715 18.1548 7.39874 18.1913 7.4276C18.2529 7.4761 18.2537 7.47431 18.2021 7.40359C18.1714 7.36154 18.1415 7.31999 18.1356 7.3112C18.1296 7.30244 18.1248 7.31326 18.1248 7.3352ZM19.5315 7.61383C19.5539 7.65588 19.5807 7.69028 19.5911 7.69028C19.6016 7.69028 19.5919 7.65588 19.5695 7.61383C19.5471 7.57178 19.5202 7.53738 19.5098 7.53738C19.4993 7.53738 19.5091 7.57178 19.5315 7.61383ZM18.3744 7.73971C18.3887 7.7774 18.4099 7.79862 18.4216 7.78684C18.4333 7.77511 18.4217 7.74426 18.3957 7.7183C18.3581 7.68084 18.3538 7.68524 18.3744 7.73971ZM30.3474 7.80496C30.3852 7.84701 30.4247 7.88141 30.4352 7.88141C30.4456 7.88141 30.4232 7.84701 30.3854 7.80496C30.3476 7.76291 30.308 7.72851 30.2976 7.72851C30.2871 7.72851 30.3095 7.76291 30.3474 7.80496ZM7.34453 8.12032L7.23287 8.24456L7.35643 8.13229C7.47158 8.02763 7.49747 7.99609 7.46808 7.99609C7.46154 7.99609 7.40593 8.05201 7.34453 8.12032ZM18.584 8.28596C18.5859 8.33049 18.5949 8.33955 18.607 8.30908C18.618 8.28148 18.6166 8.2485 18.604 8.2358C18.5914 8.22311 18.5824 8.24567 18.584 8.28596ZM15.3424 8.28978C15.3699 8.30083 15.4027 8.29945 15.4153 8.28676C15.4279 8.27407 15.4055 8.26505 15.3654 8.26669C15.3211 8.26853 15.3121 8.27759 15.3424 8.28978ZM15.5016 8.32919C15.533 8.34089 15.5929 8.36627 15.6347 8.38561C15.7095 8.42024 15.7095 8.41982 15.6369 8.36134C15.5963 8.32865 15.5365 8.30327 15.5039 8.30492C15.4527 8.30752 15.4524 8.31084 15.5016 8.32919ZM21.7597 8.37143C21.7491 8.38867 21.7909 8.39528 21.8525 8.38622C21.9142 8.37712 21.9646 8.36302 21.9646 8.35492C21.9646 8.32579 21.7785 8.34077 21.7597 8.37143ZM15.1844 8.44826C15.0874 8.55606 15.1083 8.6978 15.269 9.01947C15.6124 9.70712 15.5696 10.1699 15.0866 10.9923C14.6276 11.7736 14.499 12.1556 14.4993 12.7361C14.4997 13.453 14.864 14.1863 15.3275 14.4033C15.5713 14.5175 15.6347 14.5171 15.7505 14.4006C15.8709 14.2795 15.8716 14.1093 15.7524 13.9048C15.592 13.6296 15.5277 13.3325 15.5496 12.9675C15.5733 12.5721 15.656 12.3366 15.9801 11.7422C16.307 11.1426 16.4204 10.7908 16.4423 10.3088C16.4629 9.8557 16.4002 9.53709 16.2151 9.15529C16.0811 8.87865 15.7839 8.52319 15.612 8.43378C15.4635 8.35652 15.2607 8.3634 15.1844 8.44826ZM18.6251 8.4548C18.6251 8.50736 18.6337 8.52888 18.6442 8.50258C18.6548 8.47632 18.6548 8.43332 18.6442 8.40702C18.6337 8.38076 18.6251 8.40224 18.6251 8.4548ZM15.8058 8.51214C15.8549 8.5647 15.9036 8.6077 15.9141 8.6077C15.9245 8.6077 15.8929 8.5647 15.8438 8.51214C15.7947 8.45958 15.7459 8.41657 15.7355 8.41657C15.725 8.41657 15.7566 8.45958 15.8058 8.51214ZM21.7365 8.49303C21.626 8.60411 21.6399 8.80613 21.7766 9.0767C22.1085 9.73322 22.0655 10.199 21.5966 11.0308C21.1491 11.8246 21.0519 12.1322 21.0526 12.7518C21.0533 13.3408 21.2207 13.8324 21.5457 14.1998C21.8307 14.5221 22.122 14.616 22.2659 14.432C22.3822 14.2834 22.3648 14.1104 22.2022 13.7983C22.0624 13.5301 22.0596 13.5164 22.0596 13.1018C22.0596 12.7219 22.0709 12.6514 22.1699 12.4112C22.2306 12.264 22.3615 11.9974 22.4608 11.8187C22.6759 11.4317 22.8193 11.0956 22.8965 10.7977C22.9708 10.5109 22.9689 9.92313 22.8928 9.62619C22.7711 9.15162 22.4061 8.62857 22.0984 8.48809C21.9015 8.39815 21.8299 8.3991 21.7365 8.49303ZM22.4208 8.66504C22.4917 8.73863 22.5583 8.79883 22.5687 8.79883C22.5792 8.79883 22.5297 8.73863 22.4588 8.66504C22.3878 8.59146 22.3213 8.53125 22.3108 8.53125C22.3004 8.53125 22.3498 8.59146 22.4208 8.66504ZM19.9176 8.64593C19.9176 8.69849 19.9263 8.72001 19.9368 8.69371C19.9474 8.66745 19.9474 8.62445 19.9368 8.59815C19.9263 8.57189 19.9176 8.59337 19.9176 8.64593ZM18.6666 8.77972C18.6671 8.86382 18.6749 8.89371 18.6839 8.84616C18.693 8.7986 18.6927 8.7298 18.6832 8.69325C18.6737 8.65671 18.6662 8.69562 18.6666 8.77972ZM19.9557 8.83706C19.9557 8.88962 19.9643 8.91114 19.9748 8.88484C19.9854 8.85858 19.9854 8.81558 19.9748 8.78928C19.9643 8.76301 19.9557 8.7845 19.9557 8.83706ZM15.0834 8.87303C15.0834 8.89283 15.1004 8.91951 15.121 8.93235C15.1426 8.94573 15.1489 8.93041 15.136 8.89638C15.1107 8.83018 15.0834 8.81806 15.0834 8.87303ZM22.6236 8.9004C22.641 8.9267 22.7133 9.05651 22.7843 9.18889C22.8552 9.32126 22.9137 9.4161 22.9141 9.39963C22.9156 9.34699 22.7354 9.01118 22.6624 8.93044C22.6236 8.88763 22.6061 8.8741 22.6236 8.9004ZM18.6666 9.08553C18.6671 9.16962 18.6749 9.19952 18.6839 9.15196C18.693 9.10441 18.6927 9.0356 18.6832 8.99906C18.6737 8.96252 18.6662 9.00143 18.6666 9.08553ZM15.2239 9.12325C15.2587 9.19661 15.2939 9.24978 15.3022 9.24149C15.3195 9.22402 15.2041 8.98996 15.1781 8.98996C15.1686 8.98996 15.1892 9.04994 15.2239 9.12325ZM19.998 9.25754C19.998 9.35215 20.0054 9.39087 20.0145 9.34355C20.0236 9.29623 20.0236 9.21886 20.0145 9.17153C20.0054 9.12421 19.998 9.16293 19.998 9.25754ZM16.3214 9.23052C16.3357 9.26821 16.357 9.28942 16.3687 9.27765C16.3804 9.26591 16.3687 9.23506 16.3427 9.20911C16.3052 9.17165 16.3008 9.17604 16.3214 9.23052ZM18.6251 9.37222C18.6251 9.42478 18.6337 9.4463 18.6442 9.42C18.6548 9.39374 18.6548 9.35074 18.6442 9.32444C18.6337 9.29818 18.6251 9.31966 18.6251 9.37222ZM15.3526 9.43273C15.3544 9.47726 15.3634 9.48632 15.3755 9.45586C15.3865 9.42826 15.3851 9.39527 15.3725 9.38258C15.3599 9.36989 15.3509 9.39244 15.3526 9.43273ZM21.8535 9.50918C21.8553 9.55372 21.8643 9.56277 21.8765 9.53231C21.8875 9.50471 21.8861 9.47172 21.8735 9.45903C21.8609 9.44634 21.8519 9.46889 21.8535 9.50918ZM15.4006 9.81182C15.4007 9.98001 15.4074 10.0441 15.4154 9.95417C15.4235 9.86426 15.4234 9.72665 15.4152 9.64836C15.407 9.57008 15.4005 9.64362 15.4006 9.81182ZM22.956 9.62386C22.9578 9.66839 22.9669 9.67745 22.979 9.64699C22.99 9.61939 22.9886 9.5864 22.976 9.57371C22.9634 9.56102 22.9544 9.58357 22.956 9.62386ZM19.9557 9.67803C19.9557 9.73059 19.9643 9.75211 19.9748 9.72581C19.9854 9.69955 19.9854 9.65654 19.9748 9.63024C19.9643 9.60398 19.9557 9.62547 19.9557 9.67803ZM21.8973 9.71625C21.8973 9.78984 21.9052 9.81992 21.9147 9.78315C21.9243 9.74637 21.9243 9.68613 21.9147 9.64936C21.9052 9.61258 21.8973 9.64267 21.8973 9.71625ZM18.546 9.66533C18.5444 9.68991 18.5332 9.74152 18.5211 9.78001C18.5003 9.84656 18.5014 9.84668 18.5428 9.78169C18.5668 9.74412 18.578 9.69251 18.5677 9.66702C18.5542 9.63357 18.5482 9.63311 18.546 9.66533ZM22.9984 9.81182C22.9992 9.87489 23.0077 9.89607 23.0174 9.85887C23.027 9.82168 23.0264 9.77007 23.016 9.74419C23.0056 9.71832 22.9977 9.74874 22.9984 9.81182ZM16.4989 9.86915C16.4989 9.94274 16.5067 9.97282 16.5163 9.93605C16.5259 9.89928 16.5259 9.83903 16.5163 9.80226C16.5067 9.76549 16.4989 9.79557 16.4989 9.86915ZM19.9176 9.90738C19.9176 9.95994 19.9263 9.98146 19.9368 9.95516C19.9474 9.9289 19.9474 9.8859 19.9368 9.8596C19.9263 9.83334 19.9176 9.85482 19.9176 9.90738ZM18.4527 9.92798C18.416 10.0241 18.4268 10.0489 18.4716 9.97141C18.4938 9.93303 18.504 9.89358 18.4942 9.88376C18.4844 9.87389 18.4657 9.89381 18.4527 9.92798ZM21.8959 10.0412C21.8967 10.1042 21.9052 10.1254 21.9149 10.0882C21.9245 10.051 21.9239 9.99943 21.9135 9.97355C21.9031 9.94767 21.8952 9.9781 21.8959 10.0412ZM23.0415 10.1941C23.0417 10.3412 23.0485 10.3967 23.0568 10.3175C23.065 10.2381 23.0649 10.1177 23.0565 10.0499C23.0481 9.982 23.0414 10.0469 23.0415 10.1941ZM19.8006 10.3152C19.7989 10.3398 19.7877 10.3914 19.7757 10.4299C19.7549 10.4964 19.756 10.4965 19.7974 10.4315C19.8214 10.394 19.8326 10.3424 19.8223 10.3169C19.8088 10.2834 19.8027 10.2829 19.8006 10.3152ZM21.8155 10.3534C21.8139 10.378 21.8026 10.4296 21.7906 10.4681C21.7698 10.5346 21.7709 10.5347 21.8123 10.4698C21.8363 10.4322 21.8475 10.3806 21.8372 10.3551C21.8237 10.3216 21.8177 10.3212 21.8155 10.3534ZM15.2592 10.4631C15.2225 10.5592 15.2333 10.5841 15.2782 10.5066C15.3004 10.4682 15.3105 10.4287 15.3007 10.4189C15.2909 10.4091 15.2722 10.429 15.2592 10.4631ZM16.4989 10.519C16.4989 10.5926 16.5067 10.6227 16.5163 10.5859C16.5259 10.5491 16.5259 10.4889 16.5163 10.4521C16.5067 10.4153 16.4989 10.4454 16.4989 10.519ZM19.7073 10.5778C19.6706 10.6739 19.6814 10.6987 19.7262 10.6212C19.7484 10.5829 19.7585 10.5434 19.7487 10.5336C19.739 10.5237 19.7203 10.5436 19.7073 10.5778ZM21.6659 10.7388C21.6244 10.8363 21.6254 10.8385 21.6788 10.7697C21.7105 10.7289 21.7365 10.6816 21.7365 10.6646C21.7365 10.6065 21.7107 10.6336 21.6659 10.7388ZM16.4551 10.7324C16.4569 10.7769 16.4659 10.786 16.478 10.7555C16.489 10.7279 16.4876 10.6949 16.475 10.6823C16.4624 10.6696 16.4534 10.6921 16.4551 10.7324ZM18.0282 10.7509C18.0144 10.7733 18.0113 10.7999 18.0213 10.8099C18.0312 10.8199 18.0495 10.8016 18.0619 10.7691C18.0876 10.7018 18.0657 10.6899 18.0282 10.7509ZM15.0834 10.8248C15.061 10.8668 15.0513 10.9013 15.0618 10.9013C15.0722 10.9013 15.0991 10.8668 15.1215 10.8248C15.1438 10.7828 15.1536 10.7483 15.1431 10.7483C15.1327 10.7483 15.1058 10.7828 15.0834 10.8248ZM22.9574 10.793C22.955 10.8281 22.9432 10.8883 22.9311 10.9268C22.9104 10.9931 22.9115 10.9933 22.9527 10.9287C22.9766 10.8913 22.9884 10.8311 22.979 10.7949C22.9635 10.7357 22.9614 10.7355 22.9574 10.793ZM19.5932 10.8454C19.5565 10.9415 19.5673 10.9663 19.6121 10.8888C19.6343 10.8504 19.6445 10.811 19.6347 10.8012C19.6249 10.7913 19.6062 10.8112 19.5932 10.8454ZM17.9562 10.9283C17.9356 10.9827 17.9399 10.9871 17.9775 10.9497C18.0035 10.9237 18.0151 10.8929 18.0034 10.8811C17.9917 10.8694 17.9705 10.8906 17.9562 10.9283ZM21.5274 10.9777C21.4949 11.0408 21.477 11.0924 21.4874 11.0924C21.4979 11.0924 21.533 11.0408 21.5654 10.9777C21.5978 10.9146 21.6158 10.863 21.6053 10.863C21.5949 10.863 21.5598 10.9146 21.5274 10.9777ZM14.9694 11.0159C14.947 11.058 14.9373 11.0924 14.9477 11.0924C14.9582 11.0924 14.985 11.058 15.0074 11.0159C15.0298 10.9739 15.0395 10.9395 15.0291 10.9395C15.0186 10.9395 14.9918 10.9739 14.9694 11.0159ZM19.4364 11.1688C19.3834 11.274 19.3486 11.36 19.3591 11.36C19.3695 11.36 19.4214 11.274 19.4744 11.1688C19.5274 11.0637 19.5622 10.9777 19.5518 10.9777C19.5413 10.9777 19.4894 11.0637 19.4364 11.1688ZM17.8824 11.0748C17.8457 11.1709 17.8565 11.1957 17.9014 11.1182C17.9236 11.0798 17.9337 11.0404 17.9239 11.0305C17.9141 11.0207 17.8954 11.0406 17.8824 11.0748ZM16.3237 11.1512C16.287 11.2473 16.2978 11.2721 16.3426 11.1946C16.3648 11.1563 16.375 11.1168 16.3652 11.107C16.3554 11.0971 16.3367 11.117 16.3237 11.1512ZM14.8553 11.2071C14.8329 11.2491 14.8232 11.2835 14.8337 11.2835C14.8441 11.2835 14.871 11.2491 14.8934 11.2071C14.9157 11.165 14.9255 11.1306 14.915 11.1306C14.9046 11.1306 14.8777 11.165 14.8553 11.2071ZM16.2124 11.4178C16.1776 11.4911 16.157 11.5511 16.1665 11.5511C16.1926 11.5511 16.308 11.317 16.2906 11.2996C16.2823 11.2913 16.2471 11.3444 16.2124 11.4178ZM4.98829 11.4007C4.97449 11.4231 4.97138 11.4497 4.98134 11.4597C4.9913 11.4697 5.00958 11.4514 5.02198 11.4189C5.04768 11.3516 5.02578 11.3397 4.98829 11.4007ZM14.6129 11.6864C14.5762 11.7825 14.587 11.8073 14.6319 11.7298C14.6541 11.6914 14.6642 11.652 14.6544 11.6421C14.6446 11.6323 14.6259 11.6522 14.6129 11.6864ZM17.6716 11.7645C17.6734 11.809 17.6825 11.8181 17.6946 11.7876C17.7056 11.76 17.7042 11.727 17.6916 11.7144C17.679 11.7017 17.67 11.7242 17.6716 11.7645ZM15.9768 11.8569C15.9444 11.92 15.9264 11.9716 15.9369 11.9716C15.9473 11.9716 15.9824 11.92 16.0149 11.8569C16.0473 11.7938 16.0653 11.7422 16.0548 11.7422C16.0444 11.7422 16.0093 11.7938 15.9768 11.8569ZM22.4968 11.8569C22.4744 11.8989 22.4647 11.9333 22.4751 11.9333C22.4856 11.9333 22.5124 11.8989 22.5348 11.8569C22.5572 11.8148 22.5669 11.7804 22.5565 11.7804C22.546 11.7804 22.5192 11.8148 22.4968 11.8569ZM17.6366 11.9333C17.6366 11.9859 17.6452 12.0074 17.6558 11.9811C17.6663 11.9549 17.6663 11.9119 17.6558 11.8856C17.6452 11.8593 17.6366 11.8808 17.6366 11.9333ZM19.061 11.9157C19.0243 12.0118 19.0351 12.0366 19.0799 11.9592C19.1021 11.9208 19.1122 11.8813 19.1024 11.8715C19.0927 11.8616 19.074 11.8816 19.061 11.9157ZM21.0201 12.1245C21.0201 12.177 21.0288 12.1986 21.0393 12.1723C21.0499 12.146 21.0499 12.103 21.0393 12.0767C21.0288 12.0504 21.0201 12.0719 21.0201 12.1245ZM17.6061 12.4494C17.606 12.6386 17.6124 12.7208 17.6204 12.6321C17.6283 12.5434 17.6284 12.3886 17.6206 12.2881C17.6127 12.1876 17.6062 12.2602 17.6061 12.4494ZM15.7535 12.298C15.7168 12.3941 15.7276 12.4189 15.7724 12.3414C15.7946 12.303 15.8047 12.2636 15.7949 12.2538C15.7852 12.2439 15.7665 12.2638 15.7535 12.298ZM20.9791 12.3379C20.9809 12.3824 20.99 12.3915 21.0021 12.361C21.0131 12.3334 21.0117 12.3004 20.9991 12.2877C20.9865 12.275 20.9775 12.2976 20.9791 12.3379ZM18.8882 12.4908C18.89 12.5353 18.899 12.5444 18.9111 12.5139C18.9221 12.4863 18.9207 12.4533 18.9081 12.4406C18.8955 12.428 18.8865 12.4505 18.8882 12.4908ZM14.4119 12.7361C14.4119 12.8938 14.4186 12.9583 14.4268 12.8794C14.435 12.8006 14.435 12.6716 14.4268 12.5927C14.4186 12.5139 14.4119 12.5784 14.4119 12.7361ZM15.6567 12.6055C15.6585 12.65 15.6675 12.6591 15.6797 12.6286C15.6906 12.601 15.6893 12.568 15.6767 12.5553C15.664 12.5426 15.6551 12.5652 15.6567 12.6055ZM20.9495 12.7361C20.9495 12.8517 20.9566 12.899 20.9653 12.8412C20.974 12.7834 20.974 12.6888 20.9653 12.631C20.9566 12.5732 20.9495 12.6205 20.9495 12.7361ZM18.8606 12.9463C18.8605 13.1356 18.867 13.2178 18.8749 13.1291C18.8829 13.0403 18.883 12.8855 18.8751 12.785C18.8673 12.6845 18.8608 12.7571 18.8606 12.9463ZM15.6231 12.7934C15.6239 12.8565 15.6324 12.8777 15.642 12.8405C15.6517 12.8033 15.651 12.7517 15.6406 12.7258C15.6302 12.6999 15.6223 12.7304 15.6231 12.7934ZM22.1226 12.8125C22.1226 12.8651 22.1313 12.8866 22.1418 12.8603C22.1524 12.8341 22.1524 12.7911 22.1418 12.7648C22.1313 12.7385 22.1226 12.76 22.1226 12.8125ZM17.6336 12.9877C17.6354 13.0323 17.6444 13.0413 17.6566 13.0109C17.6675 12.9833 17.6662 12.9503 17.6536 12.9376C17.6409 12.9249 17.632 12.9474 17.6336 12.9877ZM15.5837 13.0419C15.5837 13.0945 15.5923 13.116 15.6028 13.0897C15.6134 13.0634 15.6134 13.0204 15.6028 12.9941C15.5923 12.9679 15.5837 12.9893 15.5837 13.0419ZM22.0874 13.0801C22.0874 13.1537 22.0953 13.1838 22.1048 13.147C22.1144 13.1102 22.1144 13.05 22.1048 13.0132C22.0953 12.9765 22.0874 13.0065 22.0874 13.0801ZM20.9835 13.1375C20.9843 13.2005 20.9928 13.2217 21.0025 13.1845C21.0121 13.1473 21.0115 13.0957 21.0011 13.0698C20.9906 13.044 20.9828 13.0744 20.9835 13.1375ZM14.4401 13.1789C14.442 13.2234 14.451 13.2325 14.4631 13.202C14.4741 13.1744 14.4727 13.1414 14.4601 13.1287C14.4475 13.116 14.4385 13.1386 14.4401 13.1789ZM17.6716 13.1789C17.6734 13.2234 17.6825 13.2325 17.6946 13.202C17.7056 13.1744 17.7042 13.1414 17.6916 13.1287C17.679 13.116 17.67 13.1386 17.6716 13.1789ZM14.4784 13.3095C14.4773 13.341 14.4929 13.3926 14.5132 13.4242C14.5581 13.494 14.5581 13.4337 14.5132 13.3286C14.4916 13.2782 14.4798 13.2717 14.4784 13.3095ZM22.124 13.3668C22.1248 13.4299 22.1333 13.4511 22.143 13.4139C22.1526 13.3767 22.152 13.3251 22.1416 13.2992C22.1312 13.2733 22.1233 13.3037 22.124 13.3668ZM15.6187 13.37C15.6205 13.4145 15.6295 13.4236 15.6416 13.3931C15.6526 13.3655 15.6513 13.3325 15.6386 13.3198C15.626 13.3071 15.617 13.3297 15.6187 13.37ZM21.0171 13.37C21.019 13.4145 21.028 13.4236 21.0401 13.3931C21.0511 13.3655 21.0497 13.3325 21.0371 13.3198C21.0245 13.3071 21.0155 13.3297 21.0171 13.37ZM15.6597 13.5388C15.6597 13.5914 15.6683 13.6129 15.6789 13.5866C15.6894 13.5604 15.6894 13.5174 15.6789 13.4911C15.6683 13.4648 15.6597 13.4863 15.6597 13.5388ZM17.8207 13.5917C17.8207 13.6327 17.9338 13.8446 17.9557 13.8446C17.9661 13.8446 17.9464 13.7888 17.9119 13.7204C17.8413 13.5809 17.8207 13.5518 17.8207 13.5917ZM14.5892 13.6398C14.5892 13.6604 14.6158 13.7105 14.6483 13.7513C14.7041 13.8213 14.7049 13.8201 14.6622 13.73C14.6068 13.613 14.5892 13.5913 14.5892 13.6398ZM15.8322 13.9397C15.867 14.0131 15.9022 14.0662 15.9104 14.0579C15.9278 14.0405 15.8124 13.8064 15.7864 13.8064C15.7768 13.8064 15.7974 13.8664 15.8322 13.9397ZM22.3067 13.8829C22.3291 13.9249 22.356 13.9593 22.3664 13.9593C22.3769 13.9593 22.3671 13.9249 22.3447 13.8829C22.3223 13.8408 22.2955 13.8064 22.285 13.8064C22.2746 13.8064 22.2843 13.8408 22.3067 13.8829ZM14.7759 13.9911C14.7964 14.0297 14.843 14.0855 14.8796 14.1154C14.9206 14.1489 14.9114 14.1222 14.8554 14.0453C14.7556 13.9082 14.7182 13.8827 14.7759 13.9911ZM19.1513 13.9975C19.1737 14.0396 19.2005 14.074 19.211 14.074C19.2214 14.074 19.2117 14.0396 19.1893 13.9975C19.1669 13.9555 19.1401 13.9211 19.1296 13.9211C19.1192 13.9211 19.1289 13.9555 19.1513 13.9975ZM21.2791 13.9954C21.3009 14.0363 21.3375 14.0814 21.3604 14.0957C21.3834 14.11 21.3728 14.0765 21.3369 14.0214C21.2607 13.9046 21.2214 13.8869 21.2791 13.9954ZM18.1438 14.1504C18.1817 14.1925 18.2212 14.2269 18.2316 14.2269C18.2421 14.2269 18.2197 14.1925 18.1818 14.1504C18.144 14.1084 18.1045 14.074 18.094 14.074C18.0836 14.074 18.106 14.1084 18.1438 14.1504ZM19.1923 14.1727C19.1941 14.2173 19.2031 14.2263 19.2153 14.1959C19.2263 14.1683 19.2249 14.1353 19.2123 14.1226C19.1996 14.1099 19.1907 14.1324 19.1923 14.1727ZM21.4703 14.246C21.5195 14.2986 21.5682 14.3416 21.5786 14.3416C21.5891 14.3416 21.5575 14.2986 21.5084 14.246C21.4592 14.1934 21.4105 14.1504 21.4 14.1504C21.3896 14.1504 21.4212 14.1934 21.4703 14.246ZM15.0074 14.2842C15.0565 14.3368 15.1053 14.3798 15.1157 14.3798C15.1262 14.3798 15.0945 14.3368 15.0454 14.2842C14.9963 14.2317 14.9476 14.1887 14.9371 14.1887C14.9267 14.1887 14.9583 14.2317 15.0074 14.2842ZM15.8848 14.2874C15.8866 14.3319 15.8956 14.341 15.9078 14.3105C15.9188 14.2829 15.9174 14.2499 15.9048 14.2373C15.8921 14.2246 15.8832 14.2471 15.8848 14.2874ZM18.3529 14.356C18.3529 14.3639 18.3829 14.3941 18.4195 14.4229C18.4797 14.4704 18.4811 14.4691 18.4338 14.4085C18.3841 14.3448 18.3529 14.3246 18.3529 14.356ZM15.7629 14.4849C15.7156 14.5455 15.717 14.5469 15.7773 14.4994C15.8406 14.4494 15.8607 14.418 15.8294 14.418C15.8215 14.418 15.7916 14.4481 15.7629 14.4849ZM15.3896 14.5347C15.4403 14.5671 15.7242 14.5882 15.6886 14.5571C15.6799 14.5494 15.5966 14.5334 15.5036 14.5215C15.3942 14.5074 15.3539 14.5121 15.3896 14.5347ZM18.6089 14.5374C18.6347 14.5636 18.6654 14.5753 18.6771 14.5636C18.6888 14.5518 18.6677 14.5304 18.6302 14.516C18.576 14.4953 18.5716 14.4997 18.6089 14.5374ZM19.0619 14.5207C19.0475 14.5351 18.9634 14.5587 18.8749 14.5732L18.7141 14.5996L18.8494 14.6044C18.9238 14.607 19.0179 14.5839 19.0585 14.553C19.0991 14.5222 19.1223 14.4964 19.1101 14.4957C19.0979 14.495 19.0762 14.5063 19.0619 14.5207ZM22.2139 14.553C22.1733 14.5839 22.1584 14.6092 22.1807 14.6092C22.2031 14.6092 22.2427 14.5834 22.2687 14.5518C22.3279 14.4801 22.3093 14.4805 22.2139 14.553ZM16.5376 15.3633C16.616 15.3715 16.7443 15.3715 16.8227 15.3633C16.9012 15.3551 16.837 15.3483 16.6802 15.3483C16.5233 15.3483 16.4592 15.3551 16.5376 15.3633ZM20.4925 15.3636C20.5925 15.3715 20.7465 15.3714 20.8347 15.3634C20.9229 15.3554 20.8412 15.3489 20.653 15.349C20.4648 15.3491 20.3926 15.3557 20.4925 15.3636ZM15.8723 15.399C15.8985 15.4096 15.9412 15.4096 15.9673 15.399C15.9935 15.3884 15.9721 15.3797 15.9198 15.3797C15.8675 15.3797 15.8462 15.3884 15.8723 15.399ZM16.0624 15.399C16.0885 15.4096 16.1313 15.4096 16.1574 15.399C16.1836 15.3884 16.1622 15.3797 16.1099 15.3797C16.0576 15.3797 16.0363 15.3884 16.0624 15.399ZM16.9463 15.4152C16.0208 15.4596 15.2547 15.5211 14.5702 15.606C12.2519 15.8932 11.0099 16.3141 10.6124 16.9474C10.4293 17.2389 10.3961 17.4888 10.4173 18.4126C10.4773 21.023 11.3352 23.5515 12.7344 25.242C12.9375 25.4873 12.9704 25.5646 12.8119 25.4242L12.7074 25.3315L12.7984 25.4354C12.8485 25.4926 12.9011 25.5321 12.9154 25.5233C12.9572 25.4973 13.4157 25.9824 13.3832 26.0183C13.367 26.0362 13.3745 26.0389 13.3999 26.0242C13.4268 26.0087 13.538 26.0728 13.666 26.1778C14.4237 26.799 15.3344 27.1851 16.5851 27.4152C18.797 27.8221 21.3848 27.511 22.858 26.6611C23.2576 26.4305 23.5492 26.2058 23.932 25.8333C24.1045 25.6655 24.2456 25.5454 24.2456 25.5664C24.2456 25.606 23.7147 26.1293 23.4835 26.3177C23.3538 26.4234 23.3542 26.4233 23.5233 26.3113C23.6816 26.2063 24.141 25.7527 24.3608 25.4844L24.4547 25.3697L24.3501 25.4624C24.2926 25.5134 24.2456 25.5379 24.2456 25.5169C24.2456 25.4714 24.4333 25.2876 24.4609 25.306C24.4714 25.313 24.4915 25.306 24.5054 25.2903C24.5193 25.2747 24.5094 25.2743 24.4832 25.2894C24.4016 25.3366 24.4283 25.2909 24.6861 24.9433C24.8239 24.7575 24.9491 24.583 24.9644 24.5555C24.9867 24.5155 25.0486 24.5221 25.2747 24.5887C25.6282 24.6928 26.6747 24.7356 27.1299 24.6645C28.9116 24.3864 30.0778 23.3005 30.5084 21.5189C30.6009 21.1359 30.5993 20.168 30.5055 19.7888C30.4058 19.3855 30.2 19.002 29.9208 18.6987C29.7856 18.5519 29.6872 18.4317 29.7022 18.4317C29.747 18.4317 29.6373 18.3159 29.5521 18.2734C29.5047 18.2497 29.5187 18.2729 29.587 18.3314C29.7231 18.4478 29.682 18.4641 29.5288 18.3544C29.327 18.21 28.9417 18.0517 28.6366 17.988C28.3889 17.9363 28.1959 17.9284 27.5963 17.9456L26.8601 17.9666L26.8926 17.8074C26.9511 17.5208 26.9262 17.1665 26.835 16.9871C26.6123 16.5491 26.0688 16.2443 25.0554 15.9891C23.2044 15.523 19.768 15.2798 16.9463 15.4152ZM21.3373 15.4132C21.4836 15.4283 21.6889 15.4401 21.7935 15.4395C21.9723 15.4385 21.969 15.4368 21.7365 15.4105C21.6005 15.3952 21.3953 15.3833 21.2803 15.3841C21.0758 15.3857 21.0771 15.3863 21.3373 15.4132ZM15.3976 15.4393C15.4554 15.4481 15.5409 15.4479 15.5877 15.4388C15.6345 15.4297 15.5872 15.4226 15.4826 15.4228C15.3781 15.4231 15.3398 15.4306 15.3976 15.4393ZM15.0549 15.4765C15.0915 15.4861 15.1514 15.4861 15.188 15.4765C15.2246 15.4669 15.1946 15.459 15.1215 15.459C15.0483 15.459 15.0184 15.4669 15.0549 15.4765ZM22.1071 15.4754C22.1333 15.4861 22.1761 15.4861 22.2022 15.4754C22.2283 15.4648 22.2069 15.4562 22.1546 15.4562C22.1024 15.4562 22.081 15.4648 22.1071 15.4754ZM22.545 15.5148C22.582 15.5245 22.6334 15.5239 22.6591 15.5134C22.6848 15.503 22.6546 15.495 22.5918 15.4958C22.5291 15.4966 22.5081 15.5051 22.545 15.5148ZM14.3896 15.5519C14.4158 15.5625 14.4585 15.5625 14.4847 15.5519C14.5108 15.5413 14.4894 15.5326 14.4371 15.5326C14.3849 15.5326 14.3635 15.5413 14.3896 15.5519ZM22.9079 15.5527C22.9353 15.5637 22.9681 15.5624 22.9807 15.5497C22.9933 15.537 22.9709 15.528 22.9308 15.5296C22.8866 15.5314 22.8775 15.5405 22.9079 15.5527ZM14.0879 15.5909C14.1153 15.602 14.1481 15.6006 14.1607 15.5879C14.1733 15.5752 14.1509 15.5662 14.1108 15.5678C14.0666 15.5697 14.0575 15.5787 14.0879 15.5909ZM13.5913 15.6666C13.6174 15.6772 13.6602 15.6772 13.6863 15.6666C13.7125 15.656 13.6911 15.6473 13.6388 15.6473C13.5865 15.6473 13.5651 15.656 13.5913 15.6666ZM12.9854 15.782C13.0128 15.7931 13.0456 15.7917 13.0582 15.779C13.0708 15.7663 13.0484 15.7573 13.0083 15.759C12.9641 15.7608 12.955 15.7698 12.9854 15.782ZM24.6187 15.8203C24.6461 15.8313 24.6789 15.8299 24.6915 15.8172C24.7041 15.8046 24.6817 15.7955 24.6416 15.7972C24.5973 15.799 24.5883 15.8081 24.6187 15.8203ZM25.2269 15.9732C25.2543 15.9842 25.2872 15.9828 25.2998 15.9701C25.3124 15.9575 25.29 15.9484 25.2499 15.9501C25.2056 15.9519 25.1966 15.961 25.2269 15.9732ZM26.1084 16.2679C26.1084 16.2761 26.135 16.2932 26.1674 16.3057C26.2013 16.3187 26.2165 16.3123 26.2032 16.2907C26.1809 16.2543 26.1084 16.2369 26.1084 16.2679ZM17.3265 16.3516C17.2115 16.3592 16.7923 16.3841 16.395 16.407C14.4016 16.5214 12.4553 16.8456 11.8103 17.1706C11.5867 17.2833 11.3958 17.4708 11.3958 17.5778C11.3958 17.6255 11.4513 17.7284 11.5193 17.8064C12.0679 18.4361 15.1941 19.0021 18.429 19.0574C21.2496 19.1056 24.7608 18.5552 25.7089 17.9163C26.091 17.6588 26.0852 17.4561 25.689 17.2167C25.0831 16.8506 23.6318 16.581 21.3183 16.4047C20.8098 16.366 17.7288 16.325 17.3265 16.3516ZM26.2985 16.3826C26.2985 16.3908 26.3251 16.4078 26.3575 16.4204C26.3914 16.4334 26.4066 16.427 26.3933 16.4053C26.371 16.369 26.2985 16.3516 26.2985 16.3826ZM17.2599 16.4336C17.3384 16.4419 17.4667 16.4419 17.5451 16.4336C17.6235 16.4254 17.5593 16.4186 17.4025 16.4186C17.2457 16.4186 17.1815 16.4254 17.2599 16.4336ZM17.7927 16.4332C17.8505 16.442 17.936 16.4417 17.9828 16.4327C18.0295 16.4236 17.9823 16.4164 17.8777 16.4167C17.7732 16.417 17.7349 16.4244 17.7927 16.4332ZM19.4466 16.4335C19.5149 16.442 19.6176 16.4418 19.6747 16.4331C19.7318 16.4243 19.6759 16.4174 19.5505 16.4176C19.425 16.4178 19.3783 16.425 19.4466 16.4335ZM19.8838 16.4323C19.9208 16.442 19.9722 16.4413 19.9979 16.4308C20.0236 16.4204 19.9934 16.4125 19.9306 16.4132C19.8679 16.414 19.8468 16.4226 19.8838 16.4323ZM20.1119 16.4323C20.1489 16.442 20.2003 16.4413 20.226 16.4308C20.2517 16.4204 20.2215 16.4125 20.1587 16.4132C20.096 16.414 20.075 16.4226 20.1119 16.4323ZM20.3203 16.4311C20.3465 16.4417 20.3892 16.4417 20.4154 16.4311C20.4415 16.4205 20.4201 16.4118 20.3678 16.4118C20.3156 16.4118 20.2942 16.4205 20.3203 16.4311ZM16.3248 16.4727C16.315 16.4885 16.4039 16.4965 16.5221 16.4905C16.8934 16.4719 16.9382 16.4557 16.6349 16.4497C16.4741 16.4466 16.3345 16.4569 16.3248 16.4727ZM20.8145 16.4716C20.8825 16.4801 20.9937 16.4801 21.0617 16.4716C21.1296 16.4632 21.074 16.4562 20.9381 16.4562C20.8022 16.4562 20.7466 16.4632 20.8145 16.4716ZM15.8533 16.5096C15.9108 16.5183 16.0049 16.5183 16.0624 16.5096C16.1199 16.5008 16.0728 16.4937 15.9578 16.4937C15.8428 16.4937 15.7958 16.5008 15.8533 16.5096ZM21.3594 16.4981C21.389 16.5277 21.92 16.5407 21.902 16.5113C21.8921 16.4953 21.7625 16.4822 21.6138 16.4822C21.4652 16.4822 21.3507 16.4894 21.3594 16.4981ZM15.3785 16.5475C15.4258 16.5566 15.4943 16.5563 15.5306 16.5467C15.5669 16.5372 15.5282 16.5297 15.4446 16.5301C15.361 16.5305 15.3312 16.5383 15.3785 16.5475ZM22.0506 16.5479C22.1084 16.5566 22.194 16.5564 22.2407 16.5474C22.2875 16.5383 22.2402 16.5311 22.1356 16.5314C22.0311 16.5317 21.9928 16.5391 22.0506 16.5479ZM22.4113 16.584C22.4374 16.5946 22.4802 16.5946 22.5063 16.584C22.5325 16.5734 22.5111 16.5647 22.4588 16.5647C22.4065 16.5647 22.3851 16.5734 22.4113 16.584ZM14.6942 16.6239C14.7415 16.6331 14.8099 16.6327 14.8463 16.6232C14.8826 16.6136 14.8439 16.6061 14.7603 16.6065C14.6767 16.607 14.6469 16.6148 14.6942 16.6239ZM22.7914 16.6222C22.8176 16.6328 22.8604 16.6328 22.8865 16.6222C22.9126 16.6116 22.8912 16.6029 22.839 16.6029C22.7867 16.6029 22.7653 16.6116 22.7914 16.6222ZM14.43 16.6612C14.4574 16.6723 14.4903 16.6709 14.5029 16.6582C14.5155 16.6455 14.4931 16.6365 14.453 16.6381C14.4087 16.64 14.3997 16.649 14.43 16.6612ZM23.136 16.6612C23.1634 16.6723 23.1962 16.6709 23.2088 16.6582C23.2215 16.6455 23.199 16.6365 23.159 16.6381C23.1147 16.64 23.1057 16.649 23.136 16.6612ZM14.0879 16.6995C14.1153 16.7105 14.1481 16.7091 14.1607 16.6964C14.1733 16.6837 14.1509 16.6747 14.1108 16.6764C14.0666 16.6782 14.0575 16.6873 14.0879 16.6995ZM13.6958 16.7498L13.5818 16.779L13.6958 16.7797C13.7585 16.7801 13.8526 16.7666 13.9049 16.7498L13.9999 16.7192L13.9049 16.7199C13.8526 16.7203 13.7585 16.7337 13.6958 16.7498ZM23.7062 16.7377C23.7337 16.7487 23.7665 16.7474 23.7791 16.7347C23.7917 16.722 23.7693 16.713 23.7292 16.7146C23.6849 16.7164 23.6759 16.7255 23.7062 16.7377ZM24.0365 16.8051C24.162 16.835 24.3074 16.8592 24.3597 16.8587C24.451 16.8579 24.4504 16.8566 24.3463 16.8252C24.2866 16.8073 24.1412 16.7831 24.0231 16.7716L23.8084 16.7506L24.0365 16.8051ZM13.3156 16.8263L13.2396 16.8591L13.3156 16.858C13.3575 16.8574 13.4344 16.8431 13.4867 16.8263L13.5818 16.7956L13.4867 16.7945C13.4344 16.7939 13.3575 16.8082 13.3156 16.8263ZM12.8333 16.9288C12.8607 16.9399 12.8935 16.9385 12.9062 16.9258C12.9188 16.9131 12.8963 16.9041 12.8563 16.9057C12.812 16.9076 12.803 16.9166 12.8333 16.9288ZM26.8688 16.9387C26.8688 16.9585 26.8857 16.9852 26.9064 16.998C26.9279 17.0114 26.9343 16.9961 26.9213 16.962C26.896 16.8958 26.8688 16.8837 26.8688 16.9387ZM24.8087 16.967C24.8362 16.9781 24.869 16.9767 24.8816 16.964C24.8942 16.9513 24.8718 16.9423 24.8317 16.944C24.7874 16.9458 24.7784 16.9548 24.8087 16.967ZM12.1561 17.0923C12.0411 17.1308 11.9641 17.164 11.985 17.1659C12.0059 17.1677 12.1257 17.1366 12.2512 17.0968C12.3766 17.0569 12.4536 17.0238 12.4222 17.0232C12.3909 17.0226 12.2711 17.0537 12.1561 17.0923ZM25.1669 17.0683C25.2032 17.097 25.2261 17.1274 25.2179 17.1358C25.2097 17.1443 25.2631 17.1544 25.3365 17.1583C25.4956 17.1668 25.4925 17.163 25.2721 17.0803C25.1525 17.0354 25.1208 17.0318 25.1669 17.0683ZM11.6896 17.2885C11.6526 17.3102 11.6315 17.3428 11.6427 17.3611C11.6539 17.3794 11.6431 17.4068 11.6186 17.422C11.5908 17.4393 11.5843 17.4331 11.6012 17.4056C11.6161 17.3813 11.6112 17.3614 11.5903 17.3614C11.5418 17.3614 11.4951 17.4358 11.5249 17.4657C11.5373 17.4783 11.5926 17.4679 11.6476 17.4426C11.7027 17.4174 11.7371 17.3861 11.7242 17.3731C11.7112 17.36 11.7196 17.3262 11.7429 17.298C11.793 17.2373 11.7807 17.2351 11.6896 17.2885ZM25.7145 17.3423C25.7266 17.3738 25.7559 17.3999 25.7799 17.4002C25.8038 17.4006 25.7977 17.4175 25.7663 17.4379C25.7202 17.4678 25.7257 17.475 25.7948 17.4755C25.9248 17.4764 25.9054 17.633 25.7568 17.7822C25.6675 17.8717 25.6565 17.8941 25.7168 17.8629C25.9169 17.7592 25.97 17.5525 25.8396 17.3857C25.7539 17.2762 25.6794 17.2503 25.7145 17.3423ZM18.4392 17.3879C18.4762 17.3976 18.5275 17.397 18.5532 17.3865C18.579 17.376 18.5487 17.3681 18.486 17.3689C18.4233 17.3696 18.4022 17.3782 18.4392 17.3879ZM17.6021 17.4277C17.7014 17.4356 17.8639 17.4356 17.9632 17.4277C18.0626 17.4199 17.9813 17.4134 17.7827 17.4134C17.584 17.4134 17.5027 17.4199 17.6021 17.4277ZM18.9897 17.4249C19.0159 17.4356 19.0586 17.4356 19.0848 17.4249C19.1109 17.4144 19.0895 17.4057 19.0372 17.4057C18.985 17.4057 18.9636 17.4144 18.9897 17.4249ZM19.3129 17.4275C19.3913 17.4357 19.5196 17.4357 19.598 17.4275C19.6764 17.4192 19.6122 17.4125 19.4554 17.4125C19.2986 17.4125 19.2345 17.4192 19.3129 17.4275ZM17.0318 17.4642C17.0684 17.4738 17.1283 17.4738 17.1649 17.4642C17.2015 17.4546 17.1715 17.4467 17.0984 17.4467C17.0252 17.4467 16.9952 17.4546 17.0318 17.4642ZM20.1118 17.4653C20.1695 17.4741 20.2551 17.4738 20.3018 17.4648C20.3486 17.4557 20.3013 17.4485 20.1968 17.4488C20.0922 17.4491 20.054 17.4565 20.1118 17.4653ZM16.6331 17.5031C16.6804 17.5123 16.7488 17.5119 16.7852 17.5024C16.8215 17.4928 16.7828 17.4853 16.6992 17.4857C16.6155 17.4861 16.5858 17.494 16.6331 17.5031ZM17.4975 17.5017C16.4734 17.5652 15.3161 17.7636 15.4113 17.8593C15.4544 17.9026 16.0108 17.998 16.5281 18.0507C17.1739 18.1166 19.5356 18.1419 20.3245 18.0914C21.1611 18.0379 22.165 17.8765 22.0581 17.8128C21.9015 17.7193 20.8458 17.573 19.9116 17.5152C19.342 17.48 17.9708 17.4723 17.4975 17.5017ZM20.5864 17.5031C20.6335 17.5122 20.7105 17.5122 20.7575 17.5031C20.8045 17.4939 20.7661 17.4865 20.672 17.4865C20.5779 17.4865 20.5394 17.4939 20.5864 17.5031ZM26.9903 17.5717C26.991 17.6347 26.9995 17.6559 27.0092 17.6187C27.0188 17.5815 27.0182 17.5299 27.0078 17.504C26.9974 17.4782 26.9895 17.5086 26.9903 17.5717ZM16.3482 17.5408C16.3852 17.5505 16.4365 17.5499 16.4623 17.5394C16.488 17.5289 16.4578 17.521 16.395 17.5218C16.3323 17.5225 16.3112 17.5311 16.3482 17.5408ZM20.9483 17.5408C20.9853 17.5505 21.0366 17.5499 21.0624 17.5394C21.0881 17.5289 21.0579 17.521 20.9951 17.5218C20.9324 17.5225 20.9113 17.5311 20.9483 17.5408ZM16.1408 17.5787C16.1682 17.5897 16.201 17.5883 16.2137 17.5756C16.2263 17.5629 16.2038 17.5539 16.1638 17.5556C16.1195 17.5574 16.1105 17.5665 16.1408 17.5787ZM21.2525 17.579C21.2895 17.5887 21.3408 17.5881 21.3665 17.5776C21.3923 17.5671 21.362 17.5592 21.2993 17.56C21.2365 17.5608 21.2155 17.5693 21.2525 17.579ZM15.854 17.6173C15.891 17.627 15.9423 17.6263 15.9681 17.6158C15.9938 17.6054 15.9635 17.5975 15.9008 17.5982C15.8381 17.599 15.817 17.6075 15.854 17.6173ZM21.4608 17.6161C21.487 17.6267 21.5298 17.6267 21.5559 17.6161C21.582 17.6055 21.5606 17.5968 21.5084 17.5968C21.4561 17.5968 21.4347 17.6055 21.4608 17.6161ZM15.5777 17.6672C15.5012 17.6918 15.4975 17.698 15.5587 17.6989C15.6005 17.6996 15.6689 17.6853 15.7107 17.6672C15.8076 17.6254 15.7076 17.6254 15.5777 17.6672ZM21.6889 17.6543C21.7151 17.6649 21.7579 17.6649 21.784 17.6543C21.8101 17.6437 21.7887 17.635 21.7365 17.635C21.6842 17.635 21.6628 17.6437 21.6889 17.6543ZM11.4926 17.7092C11.5258 17.8061 11.9448 18.0835 11.9898 18.0383C11.999 18.0291 11.954 17.9997 11.8898 17.9729C11.8255 17.9462 11.756 17.8923 11.7351 17.8531C11.7143 17.8139 11.6698 17.7819 11.6362 17.7819C11.6027 17.7819 11.5519 17.7518 11.5234 17.715C11.4818 17.6613 11.4757 17.6601 11.4926 17.7092ZM27.5626 17.8482C27.6619 17.8561 27.8245 17.8561 27.9238 17.8482C28.0231 17.8403 27.9418 17.8339 27.7432 17.8339C27.5445 17.8339 27.4633 17.8403 27.5626 17.8482ZM26.9828 17.8986C26.9213 17.9197 26.9681 17.9234 27.1159 17.9091C27.2414 17.8969 27.3512 17.8806 27.3599 17.8727C27.3906 17.8449 27.0766 17.8664 26.9828 17.8986ZM28.361 17.8847C28.3975 17.8943 28.4575 17.8943 28.494 17.8847C28.5306 17.8751 28.5007 17.8672 28.4275 17.8672C28.3543 17.8672 28.3244 17.8751 28.361 17.8847ZM25.4622 17.973C25.389 18.0133 25.3428 18.047 25.3595 18.0479C25.3998 18.05 25.6142 17.9379 25.6142 17.9147C25.6142 17.8897 25.612 17.8905 25.4622 17.973ZM15.5374 17.9924C15.6302 18.0234 15.8184 18.0573 15.9556 18.0676L16.2049 18.0864L15.9008 18.0343C15.7335 18.0057 15.5453 17.9718 15.4826 17.9591C15.4199 17.9464 15.4445 17.9614 15.5374 17.9924ZM21.9194 17.9609C21.9468 17.972 21.9797 17.9706 21.9923 17.9579C22.0049 17.9452 21.9825 17.9362 21.9424 17.9378C21.8981 17.9397 21.8891 17.9487 21.9194 17.9609ZM28.8006 17.9609C28.828 17.972 28.8608 17.9706 28.8734 17.9579C28.886 17.9452 28.8636 17.9362 28.8235 17.9378C28.7792 17.9397 28.7702 17.9487 28.8006 17.9609ZM21.727 17.9983C21.7531 18.009 21.7959 18.009 21.822 17.9983C21.8482 17.9877 21.8268 17.9791 21.7745 17.9791C21.7222 17.9791 21.7008 17.9877 21.727 17.9983ZM21.5369 18.0366C21.563 18.0472 21.6058 18.0472 21.6319 18.0366C21.6581 18.026 21.6367 18.0173 21.5844 18.0173C21.5321 18.0173 21.5108 18.026 21.5369 18.0366ZM21.2898 18.0758C21.3263 18.0854 21.3862 18.0854 21.4228 18.0758C21.4594 18.0662 21.4295 18.0583 21.3563 18.0583C21.2831 18.0583 21.2532 18.0662 21.2898 18.0758ZM12.1181 18.1041C12.1181 18.1296 12.6156 18.2883 12.6349 18.2689C12.6446 18.2591 12.575 18.2293 12.4804 18.2027C12.3857 18.176 12.3082 18.143 12.3082 18.1293C12.3082 18.1156 12.2654 18.1008 12.2131 18.0965C12.1609 18.0921 12.1181 18.0956 12.1181 18.1041ZM16.329 18.1147C16.3763 18.1239 16.4447 18.1235 16.481 18.114C16.5174 18.1044 16.4787 18.0969 16.395 18.0973C16.3114 18.0978 16.2817 18.1056 16.329 18.1147ZM20.9856 18.114C21.0222 18.1237 21.0821 18.1237 21.1187 18.114C21.1553 18.1044 21.1253 18.0966 21.0521 18.0966C20.979 18.0966 20.949 18.1044 20.9856 18.114ZM24.9299 18.166C24.701 18.2603 24.7845 18.2599 25.0454 18.1655C25.1596 18.1242 25.2188 18.0916 25.177 18.0931C25.1352 18.0945 25.024 18.1273 24.9299 18.166ZM29.2618 18.1299C29.313 18.1504 29.3737 18.1794 29.3967 18.1944C29.4197 18.2093 29.4059 18.1914 29.366 18.1546C29.3261 18.1178 29.2654 18.0888 29.2311 18.0901C29.1918 18.0916 29.2031 18.1063 29.2618 18.1299ZM16.7094 18.1536C16.7777 18.1621 16.8803 18.162 16.9375 18.1533C16.9946 18.1445 16.9387 18.1376 16.8132 18.1378C16.6878 18.138 16.641 18.1451 16.7094 18.1536ZM20.5491 18.1536C20.6174 18.1621 20.7201 18.162 20.7772 18.1533C20.8343 18.1445 20.7784 18.1376 20.653 18.1378C20.5275 18.138 20.4808 18.1451 20.5491 18.1536ZM17.393 18.1923C17.5027 18.2001 17.6824 18.2001 17.7922 18.1923C17.9019 18.1846 17.8121 18.1783 17.5926 18.1783C17.373 18.1783 17.2832 18.1846 17.393 18.1923ZM19.8082 18.1923C19.9082 18.2002 20.0621 18.2001 20.1504 18.1921C20.2386 18.1841 20.1568 18.1776 19.9687 18.1777C19.7805 18.1778 19.7083 18.1844 19.8082 18.1923ZM18.6666 18.2298C18.724 18.2385 18.8182 18.2385 18.8757 18.2298C18.9331 18.221 18.8861 18.2138 18.7711 18.2138C18.6561 18.2138 18.6091 18.221 18.6666 18.2298ZM12.8333 18.3432C12.8607 18.3542 12.8935 18.3528 12.9062 18.3401C12.9188 18.3275 12.8963 18.3184 12.8563 18.3201C12.812 18.3219 12.803 18.331 12.8333 18.3432ZM24.2765 18.3814C24.3039 18.3924 24.3367 18.3911 24.3493 18.3784C24.362 18.3657 24.3395 18.3567 24.2995 18.3583C24.2552 18.3601 24.2462 18.3692 24.2765 18.3814ZM13.2776 18.4517C13.3822 18.4809 13.5019 18.5044 13.5437 18.5039C13.5856 18.5034 13.5342 18.4791 13.4297 18.45C13.3251 18.4208 13.2054 18.3973 13.1636 18.3978C13.1217 18.3983 13.1731 18.4226 13.2776 18.4517ZM23.9415 18.4317C23.8662 18.456 23.8622 18.4624 23.9225 18.4624C23.9643 18.4624 24.0413 18.4486 24.0935 18.4317C24.1688 18.4075 24.1728 18.4011 24.1125 18.4011C24.0707 18.4011 23.9937 18.4149 23.9415 18.4317ZM29.7581 18.4437C29.7581 18.4503 29.8137 18.5062 29.8817 18.5679L30.0052 18.6802L29.8936 18.556C29.7895 18.4402 29.7581 18.4142 29.7581 18.4437ZM23.5803 18.5082C23.4778 18.5344 23.4759 18.5374 23.5613 18.5381C23.6136 18.5385 23.6991 18.525 23.7514 18.5082C23.8259 18.4842 23.83 18.4777 23.7704 18.4783C23.7286 18.4787 23.643 18.4921 23.5803 18.5082ZM13.6697 18.5343C13.6971 18.5453 13.7299 18.544 13.7425 18.5313C13.7552 18.5186 13.7327 18.5096 13.6927 18.5112C13.6484 18.513 13.6394 18.5221 13.6697 18.5343ZM13.8978 18.5725C13.9252 18.5836 13.958 18.5822 13.9706 18.5695C13.9833 18.5568 13.9608 18.5478 13.9208 18.5494C13.8765 18.5513 13.8675 18.5603 13.8978 18.5725ZM22.9079 18.649C22.9353 18.66 22.9681 18.6586 22.9807 18.646C22.9933 18.6333 22.9709 18.6242 22.9308 18.6259C22.8866 18.6277 22.8775 18.6368 22.9079 18.649ZM22.7154 18.6864C22.7416 18.697 22.7843 18.697 22.8104 18.6864C22.8366 18.6758 22.8152 18.6671 22.7629 18.6671C22.7107 18.6671 22.6893 18.6758 22.7154 18.6864ZM14.8275 18.7258C14.8645 18.7355 14.9159 18.7349 14.9416 18.7244C14.9673 18.7139 14.9371 18.706 14.8743 18.7068C14.8116 18.7075 14.7906 18.7161 14.8275 18.7258ZM15.0454 18.7398C15.0454 18.762 15.0625 18.7697 15.0834 18.7567C15.1043 18.7437 15.1215 18.7255 15.1215 18.7162C15.1215 18.7069 15.1043 18.6993 15.0834 18.6993C15.0625 18.6993 15.0454 18.7176 15.0454 18.7398ZM22.3737 18.7263C22.421 18.7355 22.4894 18.7351 22.5258 18.7256C22.5621 18.716 22.5234 18.7085 22.4398 18.709C22.3561 18.7094 22.3264 18.7172 22.3737 18.7263ZM15.2165 18.7762C15.2893 18.8073 15.6072 18.8287 15.5745 18.8002C15.5658 18.7927 15.4646 18.7768 15.3496 18.7651C15.2194 18.7518 15.1692 18.7559 15.2165 18.7762ZM22.1269 18.764C22.1638 18.7737 22.2152 18.7731 22.2409 18.7626C22.2666 18.7521 22.2364 18.7442 22.1737 18.745C22.1109 18.7458 22.0899 18.7543 22.1269 18.764ZM21.5464 18.814C21.3928 18.838 21.3889 18.8409 21.5084 18.8427C21.5815 18.8438 21.7355 18.8316 21.8505 18.8156C22.0569 18.7869 22.0574 18.7865 21.8885 18.7869C21.7944 18.7871 21.6405 18.7993 21.5464 18.814ZM10.3373 18.8904C10.3373 18.943 10.3459 18.9645 10.3564 18.9382C10.367 18.912 10.367 18.869 10.3564 18.8427C10.3459 18.8164 10.3373 18.8379 10.3373 18.8904ZM15.7207 18.841C15.768 18.8502 15.8364 18.8498 15.8728 18.8403C15.9091 18.8307 15.8704 18.8232 15.7868 18.8236C15.7031 18.824 15.6734 18.8319 15.7207 18.841ZM16.1389 18.8792C16.1862 18.8884 16.2546 18.888 16.2909 18.8785C16.3273 18.8689 16.2886 18.8614 16.2049 18.8619C16.1213 18.8623 16.0916 18.8701 16.1389 18.8792ZM16.4806 18.9158C16.5067 18.9264 16.5495 18.9264 16.5756 18.9158C16.6018 18.9052 16.5804 18.8965 16.5281 18.8965C16.4758 18.8965 16.4545 18.9052 16.4806 18.9158ZM17.1459 18.955C17.1824 18.9646 17.2424 18.9646 17.2789 18.955C17.3155 18.9454 17.2856 18.9375 17.2124 18.9375C17.1392 18.9375 17.1093 18.9454 17.1459 18.955ZM26.9931 19.2686C26.9046 19.2841 26.8249 19.3042 26.816 19.3134C26.8071 19.3226 26.78 19.5021 26.7559 19.7123C26.6332 20.7815 26.2801 22.0234 25.8124 23.0313C25.6046 23.479 25.6113 23.492 26.0324 23.4566C26.6664 23.4033 27.1571 23.2589 27.7622 22.9474C28.4854 22.5752 28.9812 21.9886 29.1132 21.3491C29.1874 20.9897 29.1458 20.4814 29.0192 20.2003C28.9602 20.0691 28.8884 19.9423 28.8598 19.9184C28.7888 19.8592 28.7941 19.9242 28.8689 20.0317C28.9279 20.1163 28.9274 20.1178 28.854 20.0718C28.8032 20.0399 28.7816 19.9911 28.7891 19.9254C28.8002 19.8282 28.7165 19.6932 28.6451 19.6932C28.6248 19.6932 28.6318 19.7233 28.6605 19.7601C28.7077 19.8206 28.7064 19.822 28.6465 19.7749C28.6102 19.7462 28.5884 19.7098 28.5981 19.694C28.6445 19.6185 28.2892 19.4221 27.95 19.3358C27.6679 19.2641 27.2049 19.2315 26.9931 19.2686ZM26.8308 19.4776C26.8308 19.5483 26.8226 19.6902 26.8127 19.793C26.7955 19.9718 26.7961 19.9733 26.8268 19.827C26.8839 19.5552 26.9004 19.3492 26.8652 19.3492C26.8462 19.3492 26.8308 19.407 26.8308 19.4776ZM27.7337 19.3745C27.7598 19.3851 27.8026 19.3851 27.8287 19.3745C27.8549 19.3639 27.8335 19.3552 27.7812 19.3552C27.7289 19.3552 27.7076 19.3639 27.7337 19.3745ZM27.9523 19.4256C27.9941 19.4437 28.054 19.4584 28.0853 19.4584C28.1213 19.4584 28.1143 19.4463 28.0663 19.4256C28.0245 19.4075 27.9646 19.3928 27.9333 19.3928C27.8973 19.3928 27.9043 19.4049 27.9523 19.4256ZM28.1614 19.5212C28.1614 19.5527 28.1742 19.5799 28.1899 19.5816C28.3033 19.594 28.4275 19.5985 28.4275 19.5903C28.4275 19.5769 28.2083 19.4638 28.1823 19.4638C28.1708 19.4638 28.1614 19.4896 28.1614 19.5212ZM10.4483 19.9831C10.4502 20.0276 10.4592 20.0366 10.4713 20.0062C10.4823 19.9786 10.4809 19.9456 10.4683 19.9329C10.4557 19.9202 10.4467 19.9428 10.4483 19.9831ZM28.9229 20.171C28.9229 20.192 28.9395 20.235 28.9597 20.2666C28.98 20.2981 28.9966 20.3067 28.9966 20.2857C28.9966 20.2647 28.98 20.2217 28.9597 20.1901C28.9395 20.1586 28.9229 20.15 28.9229 20.171ZM10.5244 20.4418C10.5262 20.4863 10.5352 20.4954 10.5473 20.4649C10.5583 20.4373 10.5569 20.4043 10.5443 20.3916C10.5317 20.3789 10.5227 20.4015 10.5244 20.4418ZM34.8554 20.48C34.8572 20.5245 34.8663 20.5336 34.8784 20.5031C34.8894 20.4755 34.888 20.4425 34.8754 20.4298C34.8628 20.4171 34.8538 20.4397 34.8554 20.48ZM26.6861 20.5915C26.6869 20.6546 26.6954 20.6757 26.7051 20.6386C26.7147 20.6014 26.7141 20.5498 26.7036 20.5239C26.6932 20.498 26.6854 20.5284 26.6861 20.5915ZM29.0841 20.84C29.0841 20.9346 29.0915 20.9733 29.1006 20.926C29.1097 20.8787 29.1097 20.8012 29.1006 20.754C29.0915 20.7067 29.0841 20.7454 29.0841 20.84ZM26.6437 20.7858C26.6455 20.8303 26.6545 20.8394 26.6667 20.8089C26.6776 20.7813 26.6763 20.7483 26.6637 20.7356C26.651 20.723 26.6421 20.7455 26.6437 20.7858ZM26.6057 20.9387C26.6075 20.9832 26.6165 20.9923 26.6286 20.9618C26.6396 20.9342 26.6383 20.9012 26.6256 20.8885C26.613 20.8759 26.604 20.8984 26.6057 20.9387ZM26.5677 21.0916C26.5695 21.1361 26.5785 21.1452 26.5906 21.1147C26.6016 21.0871 26.6002 21.0541 26.5876 21.0415C26.575 21.0288 26.566 21.0513 26.5677 21.0916ZM26.4916 21.3592C26.4934 21.4037 26.5025 21.4128 26.5146 21.3823C26.5256 21.3547 26.5242 21.3217 26.5116 21.309C26.499 21.2963 26.49 21.3189 26.4916 21.3592ZM28.8798 21.7524C28.8522 21.8152 28.8198 21.8604 28.8077 21.853C28.7958 21.8455 28.786 21.8726 28.786 21.9131C28.786 21.9536 28.7905 21.9867 28.796 21.9867C28.8194 21.9867 28.9635 21.672 28.9475 21.6559C28.9379 21.6462 28.9074 21.6897 28.8798 21.7524ZM30.5215 21.7032C30.5233 21.7477 30.5323 21.7568 30.5444 21.7263C30.5554 21.6987 30.554 21.6658 30.5414 21.6531C30.5288 21.6404 30.5198 21.6629 30.5215 21.7032ZM26.2462 22.122C26.2095 22.2181 26.2203 22.2429 26.2652 22.1654C26.2874 22.1271 26.2975 22.0876 26.2877 22.0778C26.2779 22.0679 26.2592 22.0878 26.2462 22.122ZM28.5821 22.2263C28.4738 22.3605 28.4695 22.3718 28.5571 22.2925C28.648 22.2102 28.756 22.0618 28.7235 22.0639C28.7175 22.0643 28.6539 22.1373 28.5821 22.2263ZM26.1679 22.3196C26.1473 22.374 26.1516 22.3784 26.1892 22.341C26.2152 22.315 26.2269 22.2842 26.2152 22.2724C26.2035 22.2607 26.1822 22.2819 26.1679 22.3196ZM28.2754 22.5256C28.2022 22.5906 28.1768 22.6266 28.2188 22.6055C28.2899 22.5699 28.4583 22.4071 28.4239 22.4073C28.4154 22.4074 28.3486 22.4606 28.2754 22.5256ZM26.0942 22.5043C26.0575 22.6004 26.0683 22.6252 26.1131 22.5477C26.1353 22.5093 26.1454 22.4699 26.1356 22.4601C26.1259 22.4502 26.1072 22.4701 26.0942 22.5043ZM27.8953 22.713C27.8446 22.746 27.8446 22.7502 27.8953 22.7513C27.9459 22.7523 27.9459 22.7565 27.8953 22.7895C27.8639 22.8099 27.8553 22.8267 27.8762 22.8269C27.8972 22.8271 27.9656 22.793 28.0283 22.7513C28.091 22.7095 28.122 22.6752 28.0971 22.6751C28.0722 22.6749 28.0412 22.692 28.0283 22.713C28.0154 22.7341 27.9877 22.7513 27.9668 22.7513C27.9459 22.7513 27.9394 22.7341 27.9523 22.713C27.9814 22.6656 27.9683 22.6656 27.8953 22.713ZM25.9477 22.856C25.9155 22.935 25.8621 23.0624 25.8289 23.1389C25.7715 23.2717 25.7721 23.279 25.8435 23.2978C25.8846 23.3086 25.9295 23.2992 25.9432 23.2769C25.9573 23.254 25.9502 23.2475 25.9269 23.262C25.8371 23.3178 25.843 23.199 25.9408 22.9799C25.9972 22.8533 26.0351 22.7412 26.0249 22.7309C26.0146 22.7206 25.9799 22.7769 25.9477 22.856ZM27.6864 22.9037C27.6731 22.9254 27.6884 22.9318 27.7222 22.9188C27.788 22.8933 27.8001 22.8659 27.7454 22.8659C27.7257 22.8659 27.6992 22.8829 27.6864 22.9037ZM27.3743 23.0343C27.2261 23.0886 27.1543 23.1543 27.287 23.1144C27.3988 23.0807 27.5893 22.9823 27.5341 22.9867C27.5132 22.9884 27.4413 23.0098 27.3743 23.0343ZM27.0399 23.1717C26.9897 23.1934 26.9833 23.2053 27.0209 23.2067C27.0522 23.2079 27.1035 23.1921 27.1349 23.1717C27.2044 23.1266 27.1444 23.1266 27.0399 23.1717ZM26.0108 23.3288C25.995 23.3545 25.9302 23.3625 25.847 23.3491C25.7518 23.3337 25.7269 23.3381 25.7663 23.3634C25.8472 23.4152 26.1611 23.4066 26.4506 23.3446L26.6977 23.2918L26.4696 23.3067C26.3442 23.3149 26.1919 23.3334 26.1313 23.3478C26.0531 23.3663 26.0289 23.3613 26.048 23.3302C26.0628 23.3061 26.0664 23.2864 26.0559 23.2864C26.0455 23.2864 26.0252 23.3055 26.0108 23.3288ZM29.4939 23.5711L29.3247 23.7642L29.5111 23.584C29.6136 23.4849 29.6897 23.398 29.6802 23.3908C29.6708 23.3838 29.5869 23.4649 29.4939 23.5711ZM28.7864 24.1486C28.7156 24.2057 28.716 24.2064 28.7982 24.1664C28.8452 24.1434 28.8837 24.1167 28.8837 24.1069C28.8837 24.0777 28.864 24.0861 28.7864 24.1486ZM28.4275 24.3567C28.3932 24.379 28.3885 24.394 28.4158 24.3944C28.4407 24.3947 28.4716 24.3778 28.4845 24.3567C28.5137 24.3093 28.5005 24.3093 28.4275 24.3567ZM28.1804 24.4537C28.1177 24.4826 28.092 24.5064 28.1234 24.5065C28.1547 24.5068 28.2232 24.4823 28.2754 24.4523C28.3956 24.3832 28.3314 24.3841 28.1804 24.4537ZM24.9545 24.6508C24.916 24.7022 24.8933 24.7531 24.9041 24.764C24.9149 24.7749 24.9436 24.7466 24.9678 24.7011C24.9932 24.6532 25.0345 24.6272 25.0659 24.6393C25.0957 24.6507 25.12 24.6453 25.12 24.6272C25.12 24.5502 25.0191 24.5646 24.9545 24.6508ZM25.215 24.6625C25.2569 24.6806 25.3167 24.6954 25.3481 24.6954C25.384 24.6954 25.377 24.6833 25.3291 24.6625C25.2873 24.6445 25.2274 24.6297 25.196 24.6297C25.1601 24.6297 25.1671 24.6418 25.215 24.6625ZM27.1411 24.7202C26.9878 24.7482 26.8509 24.7835 26.837 24.7986C26.8231 24.8138 26.8545 24.8161 26.9068 24.8037C26.9591 24.7913 27.1211 24.7621 27.2669 24.7389C27.4126 24.7156 27.5395 24.6889 27.5488 24.6796C27.576 24.6522 27.4402 24.6658 27.1411 24.7202ZM25.4526 24.7261C25.4788 24.7367 25.5216 24.7367 25.5477 24.7261C25.5738 24.7155 25.5524 24.7068 25.5002 24.7068C25.4479 24.7068 25.4265 24.7155 25.4526 24.7261ZM25.6625 24.7655C25.6995 24.7752 25.7508 24.7745 25.7765 24.7641C25.8023 24.7536 25.772 24.7457 25.7093 24.7465C25.6465 24.7472 25.6255 24.7558 25.6625 24.7655ZM26.0989 24.8055C26.2296 24.813 26.4435 24.813 26.5742 24.8055C26.7049 24.7981 26.5979 24.7919 26.3365 24.7919C26.0752 24.7919 25.9683 24.7981 26.0989 24.8055ZM24.7075 25.007C24.6613 25.0699 24.6368 25.1207 24.6531 25.1201C24.691 25.1185 24.8286 24.9302 24.8074 24.9089C24.7986 24.9 24.7537 24.9442 24.7075 25.007ZM12.5363 25.1357C12.5363 25.1436 12.5662 25.1737 12.6028 25.2026C12.6631 25.2501 12.6644 25.2488 12.6172 25.1881C12.5675 25.1245 12.5363 25.1042 12.5363 25.1357ZM10.6141 25.2528C9.89552 25.4396 9.41415 25.7863 9.16259 26.2983C9.03253 26.563 9.0198 26.6169 9.02101 26.8969C9.0239 27.5644 9.4067 28.0381 10.3123 28.4946C12.2757 29.4845 15.8721 30.1147 19.1323 30.0402C21.1073 29.9951 22.8865 29.7741 24.4547 29.3791C26.4986 28.8643 27.6952 28.2334 28.0474 27.4849C28.3044 26.9387 28.1163 26.3158 27.6029 26.0133C27.267 25.8154 26.9949 25.7647 26.1913 25.7506L25.4567 25.7377L25.6284 25.8985C25.9401 26.1902 26.0314 26.5468 25.8768 26.8679C25.7928 27.0425 25.491 27.3226 25.4287 27.2838C25.3936 27.262 25.12 27.4017 25.12 27.4415C25.12 27.452 25.1809 27.4245 25.2552 27.3804C25.4062 27.2908 25.4401 27.2815 25.4044 27.3394C25.3584 27.4144 24.7061 27.7188 24.2584 27.8743C22.1969 28.5902 19.3763 28.8375 16.414 28.562C14.4056 28.3753 12.4284 27.8359 11.6973 27.2752C11.2237 26.9121 11.2158 26.3724 11.6777 25.9261C11.7526 25.8536 11.814 25.7753 11.814 25.752C11.814 25.7033 11.6176 25.4191 11.4771 25.2646C11.3942 25.1734 11.3535 25.1597 11.1701 25.1614C11.0537 25.1624 10.8036 25.2035 10.6141 25.2528ZM9.6421 25.6086C9.59485 25.6693 9.59618 25.6706 9.65647 25.6231C9.69304 25.5942 9.723 25.5641 9.723 25.5562C9.723 25.5247 9.69179 25.5449 9.6421 25.6086ZM25.6451 25.6825C25.6725 25.6936 25.7053 25.6922 25.718 25.6795C25.7306 25.6668 25.7082 25.6578 25.6681 25.6594C25.6238 25.6613 25.6148 25.6703 25.6451 25.6825ZM26.4031 25.6834C26.4501 25.6925 26.5271 25.6925 26.5742 25.6834C26.6212 25.6743 26.5827 25.6668 26.4886 25.6668C26.3945 25.6668 26.3561 25.6743 26.4031 25.6834ZM26.8617 25.7207C26.8891 25.7318 26.9219 25.7304 26.9345 25.7177C26.9471 25.705 26.9247 25.696 26.8846 25.6977C26.8404 25.6995 26.8313 25.7086 26.8617 25.7207ZM33.4252 25.7354C33.4114 25.7578 33.4083 25.7844 33.4183 25.7944C33.4282 25.8044 33.4465 25.7861 33.4589 25.7536C33.4846 25.6863 33.4627 25.6744 33.4252 25.7354ZM9.39624 25.8189L9.32382 25.9049L9.40936 25.8321C9.48973 25.7636 9.5122 25.7329 9.48178 25.7329C9.47456 25.7329 9.43609 25.7716 9.39624 25.8189ZM27.0874 25.7582C27.1135 25.7688 27.1563 25.7688 27.1824 25.7582C27.2086 25.7476 27.1872 25.7389 27.1349 25.7389C27.0826 25.7389 27.0613 25.7476 27.0874 25.7582ZM13.1065 25.7831C13.1065 25.7896 13.1621 25.8456 13.2301 25.9073L13.3537 26.0196L13.242 25.8953C13.1379 25.7795 13.1065 25.7535 13.1065 25.7831ZM27.344 25.8298C27.4067 25.8587 27.4837 25.8818 27.5151 25.8811C27.5464 25.8805 27.5122 25.8568 27.4391 25.8284C27.2655 25.7612 27.1972 25.7622 27.344 25.8298ZM25.4622 25.8627C25.4622 25.8725 25.5177 25.9198 25.5857 25.9677C25.6734 26.0295 25.6936 26.0352 25.6554 25.9873C25.601 25.9192 25.4622 25.8297 25.4622 25.8627ZM27.7812 26.0506C27.7812 26.0572 27.8368 26.1131 27.9048 26.1749L28.0283 26.2871L27.9167 26.1629C27.8126 26.0471 27.7812 26.0211 27.7812 26.0506ZM25.7283 26.1276C25.7283 26.137 25.7538 26.1939 25.7851 26.2541C25.8163 26.3143 25.8433 26.398 25.8451 26.44C25.8469 26.4821 25.8569 26.4951 25.8674 26.4691C25.8902 26.4123 25.8134 26.1636 25.7635 26.1325C25.7441 26.1205 25.7283 26.1183 25.7283 26.1276ZM13.5754 26.251C13.5754 26.2814 13.5834 26.2983 13.5931 26.2885C13.6028 26.2787 13.6448 26.289 13.6864 26.3114C13.7407 26.3407 13.7548 26.3404 13.7363 26.3103C13.7222 26.2873 13.6802 26.2521 13.643 26.2321C13.5927 26.205 13.5754 26.2098 13.5754 26.251ZM13.7909 26.3589C13.7909 26.3668 13.8208 26.397 13.8574 26.4258C13.9177 26.4733 13.919 26.472 13.8718 26.4114C13.8221 26.3477 13.7909 26.3275 13.7909 26.3589ZM11.4018 26.4974C11.4018 26.5499 11.4104 26.5715 11.4209 26.5452C11.4315 26.5189 11.4315 26.4759 11.4209 26.4496C11.4104 26.4233 11.4018 26.4448 11.4018 26.4974ZM28.1068 26.4704C28.1211 26.508 28.1423 26.5293 28.154 26.5175C28.1658 26.5058 28.1541 26.4749 28.1281 26.4489C28.0905 26.4115 28.0862 26.4159 28.1068 26.4704ZM23.1526 26.54C23.023 26.6235 22.9811 26.6795 23.0956 26.6162C23.1828 26.568 23.3195 26.4618 23.2952 26.461C23.2847 26.4607 23.2206 26.4962 23.1526 26.54ZM25.8451 26.6885C25.8433 26.72 25.816 26.7957 25.7844 26.8567C25.7528 26.9176 25.7335 26.9741 25.7416 26.9823C25.7686 27.0094 25.8858 26.724 25.8669 26.6772C25.855 26.6477 25.8472 26.6518 25.8451 26.6885ZM11.3988 26.749C11.4006 26.7936 11.4096 26.8026 11.4217 26.7722C11.4327 26.7446 11.4313 26.7116 11.4187 26.6989C11.4061 26.6862 11.3971 26.7087 11.3988 26.749ZM14.3611 26.7446C14.3611 26.7551 14.4466 26.8072 14.5512 26.8605C14.6557 26.9138 14.7413 26.9488 14.7413 26.9383C14.7413 26.9278 14.6557 26.8756 14.5512 26.8223C14.4466 26.769 14.3611 26.734 14.3611 26.7446ZM22.5728 26.8796C22.5386 26.9019 22.5339 26.9169 22.5611 26.9173C22.586 26.9176 22.6169 26.9007 22.6299 26.8796C22.659 26.8322 22.6459 26.8322 22.5728 26.8796ZM11.5098 27.0279C11.5098 27.0463 11.5383 27.085 11.5731 27.1139C11.6304 27.1614 11.6321 27.1583 11.5908 27.0803C11.5436 26.9914 11.5098 26.9695 11.5098 27.0279ZM14.8934 27.0325C14.9247 27.0529 14.9675 27.0696 14.9884 27.0696C15.0093 27.0696 15.0008 27.0529 14.9694 27.0325C14.938 27.0122 14.8953 26.9955 14.8743 26.9955C14.8534 26.9955 14.862 27.0122 14.8934 27.0325ZM25.5498 27.1316L25.4431 27.2307L25.5667 27.1481C25.6799 27.0725 25.7168 27.0325 25.6734 27.0325C25.6641 27.0325 25.6085 27.0771 25.5498 27.1316ZM21.8505 27.1663C21.7773 27.1947 21.7431 27.2179 21.7745 27.2179C21.8058 27.2179 21.8914 27.1947 21.9646 27.1663C22.0377 27.138 22.072 27.1148 22.0406 27.1148C22.0092 27.1148 21.9237 27.138 21.8505 27.1663ZM15.4066 27.2237C15.4484 27.2418 15.5083 27.2565 15.5396 27.2565C15.5756 27.2565 15.5686 27.2444 15.5206 27.2237C15.4788 27.2056 15.4189 27.1908 15.3876 27.1908C15.3516 27.1908 15.3586 27.203 15.4066 27.2237ZM11.871 27.3384C11.9337 27.3801 12.0021 27.414 12.023 27.4137C12.0838 27.4127 11.877 27.2637 11.814 27.263C11.7826 27.2627 11.8082 27.2966 11.871 27.3384ZM15.7606 27.3262C15.788 27.3373 15.8209 27.3359 15.8335 27.3232C15.8461 27.3105 15.8237 27.3015 15.7836 27.3031C15.7393 27.305 15.7303 27.314 15.7606 27.3262ZM21.3492 27.3262C21.3766 27.3373 21.4094 27.3359 21.422 27.3232C21.4346 27.3105 21.4122 27.3015 21.3721 27.3031C21.3279 27.305 21.3188 27.314 21.3492 27.3262ZM15.9127 27.3645C15.9401 27.3755 15.9729 27.3741 15.9855 27.3614C15.9982 27.3487 15.9757 27.3397 15.9357 27.3414C15.8914 27.3432 15.8824 27.3523 15.9127 27.3645ZM21.0831 27.4027C21.1105 27.4137 21.1433 27.4124 21.1559 27.3997C21.1685 27.387 21.1461 27.378 21.106 27.3796C21.0617 27.3814 21.0527 27.3905 21.0831 27.4027ZM20.5009 27.4922C20.3127 27.5293 20.2029 27.5614 20.2569 27.5637C20.3898 27.5692 20.7963 27.4884 20.8412 27.4476C20.861 27.4296 20.8696 27.4171 20.8602 27.4199C20.8507 27.4227 20.6891 27.4552 20.5009 27.4922ZM16.4521 27.4913C16.5043 27.5081 16.5813 27.5219 16.6231 27.5219C16.6834 27.5219 16.6794 27.5155 16.6041 27.4913C16.5519 27.4744 16.4749 27.4606 16.4331 27.4606C16.3728 27.4606 16.3768 27.467 16.4521 27.4913ZM12.3842 27.6059C12.4586 27.6543 12.509 27.6543 12.4793 27.6059C12.4663 27.5849 12.4268 27.568 12.3915 27.5683C12.3361 27.5688 12.3351 27.574 12.3842 27.6059ZM17.374 27.6323C17.4106 27.6419 17.4705 27.6419 17.507 27.6323C17.5436 27.6227 17.5137 27.6148 17.4405 27.6148C17.3673 27.6148 17.3374 27.6227 17.374 27.6323ZM19.4844 27.633C19.5317 27.6421 19.6001 27.6418 19.6365 27.6322C19.6728 27.6226 19.6341 27.6151 19.5505 27.6156C19.4668 27.616 19.4371 27.6238 19.4844 27.633ZM24.5307 27.6851C24.4471 27.7256 24.4214 27.7479 24.4737 27.7349C24.5813 27.7079 24.779 27.6083 24.7208 27.6103C24.6999 27.611 24.6144 27.6447 24.5307 27.6851ZM12.5743 27.6759C12.6057 27.6954 12.6741 27.7229 12.7264 27.7369C12.7924 27.7547 12.804 27.7517 12.7644 27.7271C12.733 27.7076 12.6646 27.6801 12.6123 27.6661C12.5463 27.6483 12.5347 27.6513 12.5743 27.6759ZM18.1723 27.6705C18.2089 27.6801 18.2688 27.6801 18.3054 27.6705C18.342 27.6609 18.3121 27.653 18.2389 27.653C18.1657 27.653 18.1358 27.6609 18.1723 27.6705ZM18.8383 27.6719C18.9066 27.6804 19.0093 27.6802 19.0664 27.6715C19.1236 27.6627 19.0676 27.6558 18.9422 27.656C18.8167 27.6562 18.77 27.6633 18.8383 27.6719ZM12.8974 27.7971C13.002 27.8422 13.062 27.8422 12.9925 27.7971C12.9611 27.7767 12.9098 27.7609 12.8784 27.7621C12.8408 27.7635 12.8473 27.7754 12.8974 27.7971ZM24.2456 27.7971C24.2142 27.8174 24.2057 27.8341 24.2266 27.8341C24.2475 27.8341 24.2903 27.8174 24.3216 27.7971C24.353 27.7767 24.3616 27.76 24.3406 27.76C24.3197 27.76 24.277 27.7767 24.2456 27.7971ZM5.69317 27.8115C5.69317 27.8194 5.72309 27.8495 5.7597 27.8784C5.82 27.9259 5.82133 27.9246 5.77407 27.864C5.72438 27.8003 5.69317 27.7801 5.69317 27.8115ZM13.2396 27.9117C13.3441 27.9505 13.4639 27.9827 13.5057 27.9832C13.5475 27.9837 13.4791 27.9508 13.3537 27.9102C13.0657 27.8171 12.9871 27.8181 13.2396 27.9117ZM23.7358 27.9407C23.6331 27.9751 23.5647 28.0082 23.5837 28.0143C23.6028 28.0203 23.721 27.9927 23.8464 27.9529C23.9719 27.9131 24.0403 27.88 23.9985 27.8794C23.9567 27.8787 23.8385 27.9063 23.7358 27.9407ZM27.7763 27.9786C27.7291 28.0393 27.7304 28.0406 27.7907 27.9931C27.854 27.9431 27.8742 27.9117 27.8429 27.9117C27.835 27.9117 27.805 27.9419 27.7763 27.9786ZM13.7433 28.0517C13.7695 28.0623 13.8123 28.0623 13.8384 28.0517C13.8645 28.0411 13.8431 28.0325 13.7909 28.0325C13.7386 28.0325 13.7172 28.0411 13.7433 28.0517ZM23.4401 28.0525C23.4675 28.0636 23.5003 28.0622 23.513 28.0495C23.5256 28.0368 23.5032 28.0278 23.4631 28.0294C23.4188 28.0313 23.4098 28.0403 23.4401 28.0525ZM27.5863 28.1315C27.539 28.1922 27.5403 28.1935 27.6006 28.146C27.664 28.096 27.6841 28.0646 27.6528 28.0646C27.6449 28.0646 27.615 28.0948 27.5863 28.1315ZM14.4094 28.2058C14.4463 28.2155 14.4977 28.2149 14.5234 28.2044C14.5491 28.1939 14.5189 28.186 14.4562 28.1868C14.3934 28.1875 14.3724 28.1961 14.4094 28.2058ZM14.5892 28.2199C14.5892 28.2635 14.6913 28.2679 14.7174 28.2255C14.7276 28.2088 14.703 28.1927 14.6626 28.1896C14.6223 28.1866 14.5892 28.2002 14.5892 28.2199ZM22.8112 28.2058C22.8482 28.2155 22.8995 28.2149 22.9252 28.2044C22.951 28.1939 22.9207 28.186 22.858 28.1868C22.7952 28.1875 22.7742 28.1961 22.8112 28.2058ZM22.3637 28.2631C22.2383 28.2831 22.1217 28.3131 22.1047 28.3297C22.0877 28.3464 22.2157 28.3354 22.3893 28.3052C22.5628 28.2751 22.7122 28.243 22.7212 28.234C22.7438 28.2113 22.6322 28.2203 22.3637 28.2631ZM14.9124 28.294C14.9751 28.3101 15.0606 28.3235 15.1024 28.3239C15.162 28.3245 15.1579 28.318 15.0834 28.294C15.0312 28.2772 14.9456 28.2637 14.8934 28.2641C14.808 28.2648 14.8099 28.2678 14.9124 28.294ZM15.2664 28.3583C15.2938 28.3694 15.3266 28.368 15.3393 28.3553C15.3519 28.3426 15.3294 28.3336 15.2894 28.3352C15.2451 28.3371 15.2361 28.3461 15.2664 28.3583ZM21.8315 28.3704C21.7346 28.4123 21.8346 28.4123 21.9646 28.3704C22.041 28.3458 22.0447 28.3396 21.9836 28.3387C21.9418 28.3381 21.8733 28.3524 21.8315 28.3704ZM15.4921 28.3958C15.5183 28.4064 15.561 28.4064 15.5872 28.3958C15.6133 28.3852 15.5919 28.3765 15.5396 28.3765C15.4874 28.3765 15.466 28.3852 15.4921 28.3958ZM21.5393 28.4348C21.5667 28.4458 21.5995 28.4445 21.6121 28.4318C21.6247 28.4191 21.6023 28.41 21.5622 28.4117C21.5179 28.4135 21.5089 28.4226 21.5393 28.4348ZM27.1349 28.4469C27.1007 28.4691 27.0959 28.4842 27.1232 28.4846C27.1481 28.4849 27.179 28.4679 27.1919 28.4469C27.2211 28.3994 27.2079 28.3994 27.1349 28.4469ZM16.6517 28.5115C16.6882 28.5211 16.7481 28.5211 16.7847 28.5115C16.8213 28.5019 16.7914 28.494 16.7182 28.494C16.645 28.494 16.6151 28.5019 16.6517 28.5115ZM20.4439 28.5234L20.2348 28.5491L20.4249 28.552C20.5294 28.5536 20.7005 28.5415 20.805 28.5251L20.9951 28.4953L20.824 28.4965C20.73 28.4971 20.5589 28.5092 20.4439 28.5234ZM26.9616 28.5446C26.8907 28.6017 26.8912 28.6024 26.9733 28.5623C27.0204 28.5394 27.0589 28.5126 27.0589 28.5029C27.0589 28.4737 27.0391 28.4821 26.9616 28.5446ZM16.9565 28.5498C16.9935 28.5596 17.0448 28.5589 17.0706 28.5484C17.0963 28.538 17.066 28.53 17.0033 28.5308C16.9406 28.5316 16.9195 28.5401 16.9565 28.5498ZM17.2319 28.5648C17.2735 28.5811 17.4871 28.5936 17.7066 28.5927C18.1952 28.5906 18.1351 28.5715 17.574 28.5506C17.3443 28.5421 17.1903 28.5484 17.2319 28.5648ZM19.3723 28.5877C19.3997 28.5987 19.4325 28.5974 19.4451 28.5847C19.4577 28.572 19.4353 28.563 19.3952 28.5646C19.351 28.5664 19.3419 28.5755 19.3723 28.5877ZM19.675 28.5896C19.7644 28.5977 19.9013 28.5976 19.9791 28.5894C20.057 28.5811 19.9839 28.5745 19.8166 28.5747C19.6493 28.5748 19.5856 28.5815 19.675 28.5896ZM26.156 28.9068C26.1089 28.9258 26.0704 28.9489 26.0704 28.9581C26.0704 28.9866 26.2224 28.9366 26.2444 28.901C26.2685 28.8617 26.2675 28.8617 26.156 28.9068ZM25.8803 29.0203C25.849 29.0407 25.8404 29.0573 25.8613 29.0573C25.8822 29.0573 25.925 29.0407 25.9564 29.0203C25.9877 28.9999 25.9963 28.9832 25.9754 28.9832C25.9545 28.9832 25.9117 28.9999 25.8803 29.0203ZM11.4338 29.0585C11.4651 29.0789 11.5165 29.0946 11.5478 29.0935C11.5854 29.0921 11.579 29.0802 11.5288 29.0585C11.4243 29.0134 11.3643 29.0134 11.4338 29.0585ZM31.2359 29.1636C31.1887 29.2243 31.19 29.2256 31.2503 29.1781C31.3136 29.1281 31.3337 29.0967 31.3024 29.0967C31.2946 29.0967 31.2646 29.1269 31.2359 29.1636ZM12.3771 29.3522C12.4045 29.3632 12.4373 29.3619 12.4499 29.3492C12.4626 29.3365 12.4401 29.3275 12.4001 29.3291C12.3558 29.3309 12.3468 29.34 12.3771 29.3522ZM13.2871 29.5808C13.3133 29.5914 13.356 29.5914 13.3822 29.5808C13.4083 29.5702 13.3869 29.5615 13.3346 29.5615C13.2824 29.5615 13.261 29.5702 13.2871 29.5808ZM13.4796 29.6198C13.507 29.6308 13.5398 29.6295 13.5524 29.6168C13.5651 29.6041 13.5426 29.595 13.5026 29.5967C13.4583 29.5985 13.4493 29.6076 13.4796 29.6198ZM23.7443 29.6198C23.7717 29.6308 23.8045 29.6295 23.8171 29.6168C23.8297 29.6041 23.8073 29.595 23.7672 29.5967C23.7229 29.5985 23.7139 29.6076 23.7443 29.6198ZM23.5518 29.6572C23.5779 29.6678 23.6207 29.6678 23.6468 29.6572C23.673 29.6466 23.6516 29.6379 23.5993 29.6379C23.547 29.6379 23.5257 29.6466 23.5518 29.6572ZM30.6676 29.8135L30.5755 29.9186L30.68 29.8259C30.7777 29.7393 30.802 29.7084 30.7722 29.7084C30.7654 29.7084 30.7183 29.7556 30.6676 29.8135ZM22.7178 29.8109C22.7452 29.822 22.778 29.8206 22.7906 29.8079C22.8033 29.7952 22.7808 29.7862 22.7408 29.7878C22.6965 29.7897 22.6875 29.7987 22.7178 29.8109ZM15.0739 29.8866C15.1001 29.8972 15.1429 29.8972 15.169 29.8866C15.1951 29.876 15.1737 29.8673 15.1215 29.8673C15.0692 29.8673 15.0478 29.876 15.0739 29.8866ZM22.1856 29.8874C22.213 29.8984 22.2458 29.897 22.2584 29.8843C22.271 29.8717 22.2486 29.8626 22.2085 29.8643C22.1642 29.8661 22.1552 29.8752 22.1856 29.8874ZM15.3781 29.9248C15.4042 29.9354 15.447 29.9354 15.4731 29.9248C15.4993 29.9142 15.4779 29.9055 15.4256 29.9055C15.3733 29.9055 15.352 29.9142 15.3781 29.9248ZM15.6639 29.9642C15.7009 29.9739 15.7522 29.9733 15.778 29.9628C15.8037 29.9523 15.7735 29.9444 15.7107 29.9452C15.648 29.9459 15.6269 29.9545 15.6639 29.9642ZM21.5939 29.964C21.6305 29.9737 21.6904 29.9737 21.727 29.964C21.7635 29.9545 21.7336 29.9466 21.6604 29.9466C21.5872 29.9466 21.5573 29.9545 21.5939 29.964ZM21.2351 30.002C21.2625 30.0131 21.2953 30.0117 21.308 29.999C21.3206 29.9863 21.2982 29.9773 21.2581 29.979C21.2138 29.9808 21.2048 29.9898 21.2351 30.002ZM16.8805 30.0789C16.9175 30.0886 16.9688 30.0879 16.9945 30.0775C17.0203 30.067 16.99 30.0591 16.9273 30.0598C16.8645 30.0606 16.8435 30.0692 16.8805 30.0789ZM20.0737 30.0798C20.1315 30.0886 20.2171 30.0884 20.2638 30.0793C20.3106 30.0702 20.2633 30.063 20.1587 30.0633C20.0542 30.0636 20.0159 30.071 20.0737 30.0798ZM17.7732 30.1159C17.7993 30.1265 17.8421 30.1265 17.8682 30.1159C17.8944 30.1053 17.873 30.0966 17.8207 30.0966C17.7684 30.0966 17.747 30.1053 17.7732 30.1159ZM30.0974 30.4251L30.0052 30.5302L30.1098 30.4375C30.2075 30.3509 30.2318 30.32 30.2019 30.32C30.1951 30.32 30.1481 30.3673 30.0974 30.4251ZM8.08826 30.6402C8.08826 30.6481 8.11818 30.6783 8.15479 30.7071C8.21509 30.7546 8.21642 30.7533 8.16916 30.6927C8.11947 30.629 8.08826 30.6088 8.08826 30.6402ZM29.5271 30.9602L29.435 31.0654L29.5395 30.9727C29.6372 30.8861 29.6615 30.8551 29.6317 30.8551C29.6249 30.8551 29.5778 30.9024 29.5271 30.9602ZM27.9526 32.1926C27.9392 32.2142 27.9545 32.2207 27.9883 32.2076C28.0542 32.1822 28.0662 32.1548 28.0116 32.1548C27.9919 32.1548 27.9653 32.1718 27.9526 32.1926ZM16.1384 34.703C16.1646 34.7136 16.2073 34.7136 16.2335 34.703C16.2596 34.6924 16.2382 34.6837 16.1859 34.6837C16.1337 34.6837 16.1123 34.6924 16.1384 34.703ZM21.9955 34.7038C22.0229 34.7149 22.0557 34.7135 22.0683 34.7008C22.0809 34.6881 22.0585 34.6791 22.0184 34.6807C21.9741 34.6826 21.9651 34.6916 21.9955 34.7038ZM16.3689 34.742C16.3963 34.7531 16.4291 34.7517 16.4418 34.739C16.4544 34.7263 16.4319 34.7173 16.3919 34.719C16.3476 34.7208 16.3386 34.7298 16.3689 34.742ZM21.803 34.7412C21.8291 34.7519 21.8719 34.7519 21.898 34.7412C21.9242 34.7306 21.9028 34.722 21.8505 34.722C21.7982 34.722 21.7769 34.7306 21.803 34.7412ZM16.6731 34.7803C16.7005 34.7913 16.7333 34.7899 16.7459 34.7772C16.7585 34.7646 16.7361 34.7555 16.696 34.7572C16.6517 34.759 16.6427 34.7681 16.6731 34.7803ZM21.5773 34.7803C21.6047 34.7913 21.6375 34.7899 21.6501 34.7772C21.6627 34.7646 21.6403 34.7555 21.6002 34.7572C21.556 34.759 21.5469 34.7681 21.5773 34.7803ZM17.2053 34.8567C17.2327 34.8678 17.2655 34.8664 17.2781 34.8537C17.2908 34.841 17.2683 34.832 17.2283 34.8336C17.184 34.8355 17.175 34.8445 17.2053 34.8567ZM18.2109 34.9345C18.2687 34.9433 18.3542 34.943 18.401 34.934C18.4477 34.9249 18.4004 34.9177 18.2959 34.918C18.1913 34.9183 18.1531 34.9257 18.2109 34.9345ZM20.0946 34.9332C20.122 34.9442 20.1548 34.9428 20.1674 34.9302C20.1801 34.9175 20.1576 34.9084 20.1176 34.9101C20.0733 34.9119 20.0643 34.921 20.0946 34.9332Z" fill="#752100"/>
</svg>
