<svg width="24" height="24" viewBox="0 0 24 24" fill="none" xmlns="http://www.w3.org/2000/svg">
<path d="M3.03833 4.2939C3.01363 4.10866 3.07824 3.92338 3.23047 3.81499C3.92634 3.31953 6.31334 2 11.9991 2C17.6849 2 20.0719 3.31952 20.7678 3.81499C20.92 3.92338 20.9846 4.10866 20.9599 4.2939L19.2607 17.0378C19.0959 18.2744 18.3635 19.3632 17.2804 19.9821L16.9605 20.1649C13.8862 21.9217 10.112 21.9217 7.03775 20.1649L6.71787 19.9821C5.63474 19.3632 4.90239 18.2744 4.73752 17.0378L3.03833 4.2939Z" stroke="black" stroke-width="1.5"/>
<path d="M3 5C5.57143 7.66666 18.4286 7.66662 21 5" stroke="black" stroke-width="1.5"/>
<path d="M4 13C5.03151 14.2034 7.92505 14.8638 11 14.981C12.3455 15.0323 13.7258 14.9796 15 14.823C17.2664 14.5443 19.1972 13.9366 20 13" stroke="black" stroke-width="1.5"/>
<path d="M4 13C6.28571 10.3333 17.7143 10.3334 20 13" stroke="black" stroke-width="1.5"/>
</svg>
